<svg xmlns="http://www.w3.org/2000/svg" width="1280" height="720" viewBox="0 0 1280 720">
  <defs>
    <linearGradient id="bg" x1="0" y1="0" x2="1" y2="1"><stop offset="0%" stop-color="#0a0e17"/><stop offset="50%" stop-color="#0d1a2d"/><stop offset="100%" stop-color="#0a1a0a"/></linearGradient>
    <linearGradient id="accent" x1="0" y1="0" x2="1" y2="0"><stop offset="0%" stop-color="#00FF41"/><stop offset="100%" stop-color="#00cc33"/></linearGradient>
  </defs>
  <rect width="1280" height="720" fill="url(#bg)"/>
  <!-- Nav bar -->
  <rect width="1280" height="56" fill="#0d1a2d" stroke="#00FF41" stroke-width="2" y="0"/>
  <text x="30" y="36" font-family="sans-serif" font-weight="800" font-size="22" fill="#00FF41">IERAHKWA</text>
  <text x="180" y="36" font-family="sans-serif" font-size="14" fill="#888">Portal Central</text>
  <!-- Hero -->
  <text x="640" y="140" text-anchor="middle" font-family="sans-serif" font-weight="800" font-size="36" fill="#fff">Ierahkwa Ne Kanienke</text>
  <text x="640" y="175" text-anchor="middle" font-family="sans-serif" font-size="16" fill="#888">Soberania Digital para 72M Personas Indigenas</text>
  <!-- Stats -->
  <rect x="200" y="210" width="160" height="80" rx="12" fill="#0d1a2d" stroke="#1e3a5f"/>
  <text x="280" y="248" text-anchor="middle" font-family="sans-serif" font-weight="700" font-size="28" fill="#00FF41">190</text>
  <text x="280" y="272" text-anchor="middle" font-family="sans-serif" font-size="11" fill="#888">PLATAFORMAS</text>
  <rect x="400" y="210" width="160" height="80" rx="12" fill="#0d1a2d" stroke="#1e3a5f"/>
  <text x="480" y="248" text-anchor="middle" font-family="sans-serif" font-weight="700" font-size="28" fill="#00FF41">15</text>
  <text x="480" y="272" text-anchor="middle" font-family="sans-serif" font-size="11" fill="#888">NEXUS</text>
  <rect x="600" y="210" width="160" height="80" rx="12" fill="#0d1a2d" stroke="#1e3a5f"/>
  <text x="680" y="248" text-anchor="middle" font-family="sans-serif" font-weight="700" font-size="28" fill="#00FF41">574</text>
  <text x="680" y="272" text-anchor="middle" font-family="sans-serif" font-size="11" fill="#888">NACIONES</text>
  <rect x="800" y="210" width="160" height="80" rx="12" fill="#0d1a2d" stroke="#1e3a5f"/>
  <text x="880" y="248" text-anchor="middle" font-family="sans-serif" font-weight="700" font-size="28" fill="#00FF41">19</text>
  <text x="880" y="272" text-anchor="middle" font-family="sans-serif" font-size="11" fill="#888">PAISES</text>
  <!-- Platform cards -->
  <rect x="60" y="330" width="220" height="100" rx="12" fill="#0d1a2d" stroke="#00bcd4" stroke-width="1.5"/>
  <text x="170" y="370" text-anchor="middle" font-family="sans-serif" font-size="13" fill="#00bcd4">NEXUS ORBITAL</text>
  <text x="170" y="395" text-anchor="middle" font-family="sans-serif" font-size="11" fill="#888">Telecomunicaciones</text>
  <rect x="300" y="330" width="220" height="100" rx="12" fill="#0d1a2d" stroke="#f44336" stroke-width="1.5"/>
  <text x="410" y="370" text-anchor="middle" font-family="sans-serif" font-size="13" fill="#f44336">NEXUS ESCUDO</text>
  <text x="410" y="395" text-anchor="middle" font-family="sans-serif" font-size="11" fill="#888">Defensa</text>
  <rect x="540" y="330" width="220" height="100" rx="12" fill="#0d1a2d" stroke="#7c4dff" stroke-width="1.5"/>
  <text x="650" y="370" text-anchor="middle" font-family="sans-serif" font-size="13" fill="#7c4dff">NEXUS CEREBRO</text>
  <text x="650" y="395" text-anchor="middle" font-family="sans-serif" font-size="11" fill="#888">AI &amp; Quantum</text>
  <rect x="780" y="330" width="220" height="100" rx="12" fill="#0d1a2d" stroke="#ffd600" stroke-width="1.5"/>
  <text x="890" y="370" text-anchor="middle" font-family="sans-serif" font-size="13" fill="#ffd600">NEXUS TESORO</text>
  <text x="890" y="395" text-anchor="middle" font-family="sans-serif" font-size="11" fill="#888">Finanzas</text>
  <rect x="1020" y="330" width="220" height="100" rx="12" fill="#0d1a2d" stroke="#e040fb" stroke-width="1.5"/>
  <text x="1130" y="370" text-anchor="middle" font-family="sans-serif" font-size="13" fill="#e040fb">NEXUS VOCES</text>
  <text x="1130" y="395" text-anchor="middle" font-family="sans-serif" font-size="11" fill="#888">Social &amp; Media</text>
  <!-- Second row -->
  <rect x="60" y="450" width="220" height="100" rx="12" fill="#0d1a2d" stroke="#1565c0" stroke-width="1.5"/>
  <text x="170" y="490" text-anchor="middle" font-family="sans-serif" font-size="13" fill="#1565c0">NEXUS CONSEJO</text>
  <rect x="300" y="450" width="220" height="100" rx="12" fill="#0d1a2d" stroke="#43a047" stroke-width="1.5"/>
  <text x="410" y="490" text-anchor="middle" font-family="sans-serif" font-size="13" fill="#43a047">NEXUS TIERRA</text>
  <rect x="540" y="450" width="220" height="100" rx="12" fill="#0d1a2d" stroke="#00e676" stroke-width="1.5"/>
  <text x="650" y="490" text-anchor="middle" font-family="sans-serif" font-size="13" fill="#00e676">NEXUS FORJA</text>
  <rect x="780" y="450" width="220" height="100" rx="12" fill="#0d1a2d" stroke="#ff9100" stroke-width="1.5"/>
  <text x="890" y="490" text-anchor="middle" font-family="sans-serif" font-size="13" fill="#ff9100">NEXUS URBE</text>
  <rect x="1020" y="450" width="220" height="100" rx="12" fill="#0d1a2d" stroke="#00FF41" stroke-width="1.5"/>
  <text x="1130" y="490" text-anchor="middle" font-family="sans-serif" font-size="13" fill="#00FF41">NEXUS RAICES</text>
  <!-- Footer -->
  <rect y="680" width="1280" height="40" fill="#0d1a2d"/>
  <text x="640" y="705" text-anchor="middle" font-family="sans-serif" font-size="12" fill="#888">Ierahkwa v3.9.0 — Powered by MameyNode &amp; WAMPUM — 190 Plataformas — 15 NEXUS</text>
</svg>
