<?xml version="1.0" encoding="UTF-8"?><svg id="Layer_3" xmlns="http://www.w3.org/2000/svg" viewBox="0 0 1195.18 216.82"><defs><style>.cls-1{fill:#015da1;}.cls-2{fill:#04599c;}.cls-3{fill:#0197c2;}.cls-4{fill:#0391c6;}.cls-5{fill:#0097c0;}.cls-6{fill:#0096c0;}.cls-7{fill:#008fc3;}.cls-8{fill:#035fa0;}.cls-9{fill:#045a9c;}.cls-10{fill:#005da0;}.cls-11{fill:#055c9f;}.cls-12{fill:#0592c6;}.cls-13{fill:#01589d;}.cls-14{fill:#00569b;}.cls-15{fill:#025ea2;}.cls-16{fill:#0761a5;}.cls-17{fill:#055a9e;}.cls-18{fill:#0297c0;}.cls-19{fill:#0290c2;}.cls-20{fill:#0296c2;}.cls-21{fill:#085d99;}.cls-22{fill:#00527d;}.cls-23{fill:#085fa3;}.cls-24{fill:#0197c0;}.cls-25{fill:#0490c3;}.cls-26{fill:#0561a3;}.cls-27{fill:#00559a;}.cls-28{fill:#005da1;}.cls-29{fill:#0196c1;}</style></defs><path class="cls-27" d="M110.47,162.97c-.14-12.28-.04-24.56-.05-36.84,0-.55.14-1.13-.29-1.83-.49.78-1.21,1.08-1.81,1.56-3.36,2.65-7.15,3.33-11.28,2.43-.66-.14-.77-.53-.61-1.07.15-.51.36-1,.54-1.5.24-.66.62-.84,1.35-.67,5.78,1.38,12.08-3.47,12.09-9.44.04-19.52.02-39.05-.01-58.57,0-3.22-1.39-5.99-3.73-8.07-6.33-5.6-16.24-3.08-18.53,5.15-.04.15-.21.97-.81,1.22-.38.16-.81.03-1.13-.11-.11-.04-.22-.09-.33-.13-.36-.08-.79-.15-1.29-.17-.52-.02-.98,0-1.37.06-.14.02-.28.04-.42.07-.32.06-.92.17-1.64.39-7.68,2.35-10.38,10.56-10.16,11.67.07.35.27.57.27.57.28.12.69.28,1.21.34.15.02.25.02.28.02,1.46.08,3.53.86,3.53.86,4.61,1.74,8.05,1.98,9.52,3.39.11.1.59.6.97.47.21-.07.33-.38.48-.92.43-1.59,1.18-3.07,2.19-4.37.45-.58.44-.88.05-1.49-.67-1.04-1.41-2.1-1.38-3.44-.15-.48-.28-.95.32-1.23.72-.06,1.24-.11,1.66-.15.28-.03.65-.07.85.15.11.12.12.28.13.33.08.81.93,2.54,1.87,3.45.33.31.72.59.72.59.19.14.41.31.75.45.29.12.65.24,1.06.33.45.1.85.14,1.19.15.29,0,.59,0,.88,0,.58-.11,1.17-.23,1.75-.34.51-.33.86.04,1.22.3.8,1.14,1.19,1.71,1.05,2.08-.16.45-.79.6-1.9.89-.63.16-1.16.24-1.53.28h0c-.33.06-.82.13-1.41.11-.82-.03-1.44-.22-2.13-.43-.38-.12-.91-.3-1.51-.56-.4.17-1.29.61-1.98,1.58-.56.79-.74,1.57-.81,1.99-.08.24-.15.53-.21.85-.05.3-.07.57-.08.81-.06,1.22.03,2.23.15,2.98.14.88.3,1.89.88,3.08.26.53.58,1.04.95,1.53.11.14.22.29.33.43.17.21.33.42.5.62.18.18.37.36.56.54.17.16.35.32.52.48.19.14.49.34.87.57.91.55,1.13.52,1.28.82.25.51-.09,1.24-.32,1.75-.09.2-.19.36-.26.47-.29.52-.7.55-1.19.3-.61-.23-1.36-.58-2.14-1.12-1.3-.91-2.12-1.95-2.6-2.68-1.4-1.53-2.1-3.41-2.57-5.37-.07-.28-.23-.65-.5-1.14-.83-1.53-2.02-2.48-2.9-3.04-.21-.14-.43-.28-.66-.42-.48-.29-.95-.56-1.4-.79-.54-.21-1.08-.42-1.62-.63-.29-.1-.59-.2-.88-.3-.89-.28-1.97-.54-3.2-.7-.97-.12-1.85-.16-2.62-.15-.5,0-1.22.03-2.07.18,0,0-.45.09-.92.21-1.06.26-3.32.84-5.55,2.28-3.51,2.26-5.14,5.48-5.88,6.91-.19.38-.38.78-.56,1.22-.31.75-.91,2.37-1.09,4.38-.07.7-.06,1.25-.06,1.44,0,0,0,.72.09,1.43.24,2.04,1.92,6.95,2.95,8.14.07.08.32.36.25.64-.04.15-.21.27-.55.46-1.15.63-3.5,2.49-4.49,3.54-.2.21-.96,1.03-1.68,2.28-.46.79-.77,1.5-.97,2.06-.59,1.85-.71,3.34-.72,4.25-.02,1.18.13,1.95.19,2.23.16.76.37,1.32.56,1.77,0,0,1.12,2.74,3.87,6.31.15.2.47.6.91.61.46.01.81-.42.94-.57.5-.59,1.48-1.44,3.56-2.72.67-.46,1.35-.93,2.04-1.42.63-.45,1.24-.9,1.83-1.34l.11-.07h.13c.09,0,.17-.01.24,0,.89.04,1.85,2.3,1.76,2.62-.06.18-.24.33-.67.41-.06.01-.1.01-.11.01-.24,0-.81.27-2.05,1.09-1.16.46-4.16,3.01-4.42,3.78-.42.52-.86,1.14-1.29,1.86-.63,1.06-1.06,2.07-1.35,2.92-.3.64-.68,1.59-.91,2.79-.04.21-.13.7-.21,1.74-.07.91-.12,2.17-.07,3.69.08.5.59,3.52,1.78,5.36.22.34.84,1.27,1.74,2.27.2.22.4.45.6.67.51.53,1.02,1.05,1.53,1.58.43.41.93.85,1.48,1.28.56.44,1.11.82,1.62,1.15.54.66,1.41.95,2.21.72.9-.25,1.53-1.11,1.52-2.09.24-.8.89-2.59,2.58-4.15,1.52-1.4,3.13-1.94,3.94-2.14.22-.07.45-.14.69-.2.49-.13.96-.22,1.4-.29.81-.13,1.66-.3,2.52-.49.26-.06.52-.12.77-.18.07-.42.13-.87.18-1.33.06-.54.1-1.06.13-1.55.55-1.93.99-3.36,1.15-3.77.04-.12.14-.33.31-.37.08-.02.18,0,.3.1.79.55,1.9.65,2.34,1.67-.73.65-.77,1.53-.82,2.42-.02.18-.05.35-.07.53-.24,1.15-.03,2.32-.13,3.48-.13,1.54.39,2.85,1.6,3.86,1.61,2.48,3.83,4.04,6.8,4.44.58.16,1.17.17,1.75,0,.17-.02.35-.04.52-.06.11-.07.23-.14.34-.2.46-.02.95-.03,1.47-.03.48,0,.94.02,1.38.05.05.1.13.16.24.16q2.32.48,1.57,2.39c-.48.46-1.08.63-1.72.71-.87.12-1.75-.13-2.61.14-2.69.38-4.39,2.18-4.86,4.57-.31,1.58-.87,1.46-1.91,1.32-1.01-.33-1.13-1.17-1.2-2.05-.02-.4.02-.73.07-.97.09-.45.23-.77.27-.85.14-.3.3-.54.43-.7.18-.28.36-.57.55-.86.21-.32.42-.63.62-.94-3.74-1.49-6.4-4.01-7.83-7.74-.23-.61-.56-.86-1.27-.85-3.43.08-5.71,1.59-5.71,1.59-.76.47-2.06,1.29-2.92,2.63-.65,1.02-1.01,2.26-1.01,2.26-.08.28-.13.51-.17.68-.03.16-.05.32-.08.48-.08.61-.16,1.22-.24,1.83v1.26c0,.42,0,.92.09,1.47.04.28.1.54.16.78l.94,2.59c1.23,2.61,3.24,4.53,5.54,6.19.1.08.19.17.28.26.1.06.24.14.42.23.8.42,1.57.73,2.09.89.54.17,1.47.23,3.31.34,2.1.12,2.35.03,2.53-.09.16-.1.61-.39.97-.26.06.02.14.07.22.18.07.12.19.31.31.56.48.96.5,1.51.94,2.55.08.19.21.47.39.81.07.12.14.23.23.33.3.36.69.93,1.26,1.55.21.23.49.51.82.82.24.24.61.57,1.12.9,0,0,.78.5,1.81.81,1.21.36,3.97.69,7.63.65.27-.04.61-.12,1-.24.09-.03.34-.11.68-.25.38-.16.89-.4,1.49-.78.92-.7,2.33-1.94,3.47-3.85,1.87-3.15,1.94-6.28,1.92-7.74ZM91.45,98.53c-1.65-.41-3.05-.31-3.9-.18-1.54.23-2.71.76-3.42,1.16-.38.21-.8.48-1.25.83-.55.43-.98.86-1.31,1.25-.16.24-.35.61-.41,1.07-.09.81.31,1.31.63,2.05.47,1.11.46,2.07.44,3.52-.01,1.09-.16,1.86-.33,2.71-.15.77-.15,1.53-.56,2.42-.39.83-.69.94-.78.97-.19.06-.34.03-1.78-.62-.65-.3-.87-.4-1.01-.67-.18-.34-.11-.7-.07-.92.3-1.44.79-2.19,1.01-3.12.19-.81.1-1.42-.04-2.41-.2-1.38-.67-2.46-1.03-3.13-.33-.62-.68-1.11-.96-1.46-.99-1.3-2.03-2.04-2.73-2.45-.63-.37-1.66-.98-3.13-1.24-1.25-.22-2.04-.03-2.42-.59-.09-.14-.11-.59-.14-1.49-.04-1,0-1.27.19-1.43.12-.1.26-.12.76-.11.96.03,1.47.13,1.47.13,1.39.28,2.09.42,2.24.46.82.25,2.07.62,3.25,1.5.66.49.99.73,1.32,1.1.18.2.37.45.73.7.31.21.6.33.81.4,0,0,.61-.44.62-.44,0,0,.71-.51.72-.51.3-.27.77-.65,1.39-1.05.67-.44,5.25-3.34,10.83-1.85,2.73.73,4.4,2.15,5.73,3.29.52.45,2.49,2.14,2.09,3.03-.07.16-.43.36-1.14.75-1.15.64-1.39.62-1.51.59-.34-.07-.47-.32-1.01-.93-.39-.44-.83-.83-1.24-1.26-1.34-1.39-3.63-1.95-4.06-2.06Z"/><path class="cls-10" d="M128.92,176.08c-4.5-.06-8.1-4.1-7.85-8.83.23-4.31,4.35-7.87,8.67-7.54,2.6.2,4.68,1.37,6.18,3.44.47.65.82.63,1.41.38,1.92-.82,3.86-1.62,5.79-2.41.55-.23.86-.5.77-1.2-.26-2,.48-3.67,2.04-4.89.62-.48.59-.89.36-1.48-.98-2.54-1.97-5.08-2.9-7.64-.23-.62-.64-.58-1.12-.68-1.94-.39-3.17-1.64-3.38-3.35-.21-1.64.56-3.06,2.03-3.89.69-.39,1.44-.47,2.13-.3,1.14.28,1.78-.23,2.41-1.05.71-.93,1.47-1.83,2.26-2.69,1.1-1.2,1.98-2.29,1.13-4.17-.55-1.22.78-3.38,2.13-3.77,1.87-.53,2.96-.66,4.41.9,1.03,1.1,1.26,3.09.54,4.34-.81,1.41-2.62,2.36-4.07,1.91-.73-.23-1.16-.2-1.62.39-1.29,1.59-2.59,3.17-3.92,4.73-.42.49-.57.87-.28,1.54.66,1.5.51,2.99-.71,4.18-.54.53-.47.95-.24,1.55.96,2.45,1.91,4.9,2.79,7.38.26.74.62.9,1.38.9,3.16,0,5.5,2.26,5.64,5.33.13,2.89-2.1,5.49-5.1,5.73-1.78.15-3.39-.49-4.55-1.89-.46-.55-.8-.7-1.45-.4-1.9.86-3.82,1.69-5.75,2.47-.63.26-.89.48-.75,1.27.94,5.26-2.99,9.8-8.37,9.73Z"/><path class="cls-14" d="M131.31,68.9c.61.27,1.07.42,1.68.95.26.22.46.46.49.5.21.25.36.49.46.68.16.3.33.59.49.89.1.3.2.59.29.89,0,.72.18,1.49-.02,2.14-.21.67-.15,1.04.01,1.34.11.21.28.33.58.54.26.18.49.29.67.36.4.21.8.43,1.2.64.21.1.56.28.99.5,1.26.64,1.52.82,1.94.85.46.03.96-.08,1.57-.39,2.14-1.1,4.63.35,5.15,2.53.55,2.29-.8,4.19-3.38,4.67-.46.09-.62.23-.76.68-.41,1.39-.89,2.76-1.37,4.13-.21.59,0,.98.41,1.41,1.5,1.62,1.65,3.44.48,4.97-1.24,1.63-3.09,1.96-5.05.9-.2-.12-.44-.29-.68-.54-.24-.24-.41-.47-.52-.66-1.57-2.38.21-5.45,2.43-5.62.88-.07,1.26-.55,1.46-1.34.15-.61.35-1.22.57-1.81.35-.94.68-1.84.4-2.69-.14-.43-.42-.39-.89-1.2-.23-.4-.35-.69-.43-.94-.02-.07-.11-.37-.16-.81-.08-.66.08-.85-.03-1.12-.22-.54-.76-.86-1.36-1.19-1.15-.63-2.32-1.24-3.4-1.97-.7-.47-1.1-.38-1.74.15-1.82,1.5-3.92,1.72-6.03.7-2.13-1.02-3.19-2.84-3.07-5.19.12-2.33,1.3-4.07,3.54-4.86.92-.32,1.18-.76,1.12-1.67-.08-1.22-.08-2.45,0-3.66.07-.97-.3-1.3-1.22-1.57-4.45-1.28-6.71-4.97-6.09-9.75.37-2.84,3.31-5.56,6.46-6.24,2.99-.64,6.73.91,8.44,3.47,2.08,3.12,1.87,6.24.02,9.37-.12.32-.34.74-.7,1.15-.13.14-.25.26-.37.36-.26.2-.51.4-.77.6-.56.27-1.13.54-1.69.8q-2.37.61-2.37,3.03c0,.96.04,1.92.06,2.89.36.41.62.91,1.15,1.14Z"/><path class="cls-6" d="M175.45,114.17c-.32.73-1.39,2.94-3.86,4.14-3.2,1.55-7.26.67-9.47-1.85-2.15-2.45-3.15-6.23-1-9.42.38-.56.49-1.09-.1-1.68-1.44-1.44-3.05-2.69-4.39-4.25-.45-.53-1.05-.36-1.71-.05-1.73.79-3.88.17-5.17-1.32-1-1.16-1.26-3.2-.58-4.55.9-1.78,2.8-2.85,4.67-2.62.43.05.87.11,1.22.44,1.07,1.02,2.07.86,3.24,0,1.71-1.26,3.54-2.35,5.32-3.51.31-.69.06-1.42.15-2.13.07-.51.11-1.04.58-1.38.78-1.15,1.93-1.63,3.26-1.76.26.02.6.07.98.21.53.19.92.45,1.17.65.29.34.58.68.87,1.02.06.16.13.31.19.47.25.62.32,1.23.33,1.61.06,1.67-1.01,2.73-1.01,2.73-1.29,1.26-3.13.91-3.41.86-.6-.11-1.07-.34-1.37-.53-.42-.42-.85-.48-1.3-.03-2.21,1.2-4.38,2.46-6.36,4.02.23.62.28,1.15.28,1.5,0,.19,0,.5-.08.89-.12.52-.33.92-.49,1.16-.24.54-.11,1.01.3,1.41,1.4,1.61,3.12,2.87,4.72,4.28.15.05.32.08.52.09.91.02,1.55-.66,1.7-.84.47-.25,1.11-.52,1.9-.69,1.23-.27,2.28-.17,2.94-.06.51.09,1.17.26,1.89.58.86.38,1.5.85,1.94,1.23.59.6,1.03,1.14,1.35,1.57.68.92.91,1.47.98,1.65.15.37.22.66.26.82.34,1.34.26,2.55.11,3.44-.19.64-.37,1.28-.56,1.92Z"/><path class="cls-7" d="M118.7,124.44c1.24-2.58,3.93-4.1,6.78-3.75.9.11,1.5,0,1.78-.98.19-.65.49-1.28.83-1.87.86-1.48,1.4-2.78.06-4.45-.93-1.16-.06-3.38,1.23-4.24,1.66-1.11,3.33-1.07,4.62.35.72.79,1.42.89,2.33.65,1.6-.43,3.18-.92,4.8-1.25.76-.15.74-.66.87-1.14.45-1.68,1.93-2.9,3.55-2.9,1.77,0,3.18,1.18,3.61,3.03.37,1.57-.44,3.15-2.03,3.96-1.56.8-2.89.61-4.21-.81-.56-.6-1.07-.72-1.8-.53-1.74.45-3.49.92-5.25,1.29-.58.12-.6.44-.71.89-.48,2.03-1.58,2.97-3.66,3.1-.63.04-.98.27-1.22.83-.55,1.3-1.08,2.6-1.73,3.85-.42.81-.25,1.27.42,1.85,2.11,1.85,2.77,4.76,1.75,7.27-1.01,2.5-3.56,4.13-6.36,4.01-2.56-.11-4.32-1.53-5.67-3.58-.23-.61-.34-1.26-.58-1.87,0-.71,0-1.43,0-2.14.16-.54.31-1.08.57-1.58Z"/><path class="cls-6" d="M166.89,143.09c-1.12.43-2.1.35-2.48.31-2.15-.24-3.72-1.41-4.55-3.42-.85-2.06-.37-3.94,1.05-5.58,1.26-1.45,2.92-2.21,4.79-1.82,1.1.23,2.01.67,2.74,1.3.34.3,1.74,1.52,1.96,3.49.02.17.04.45.02.79-.1,1.91-1.39,4.11-3.53,4.93Z"/><path class="cls-28" d="M158.42,72.21c2.63-.05,4.7,1.85,4.8,4.42.1,2.39-2.06,4.61-4.5,4.62-2.53.01-4.46-1.94-4.59-4.52-.12-2.43,1.97-4.76,4.28-4.52Z"/><path class="cls-13" d="M122.5,138.02c2.1.51,3.42,2.17,3.2,4.01-.22,1.91-1.99,3.52-3.85,3.52-1.87,0-3.65-1.62-3.95-3.58-.23-1.55,1.13-3.28,3.13-3.94.49.13.97.13,1.46,0Z"/><path class="cls-1" d="M125.05,105.39c-2.05-.03-3.73-1.7-3.73-3.71,0-2.01,1.82-3.86,3.82-3.87,2.01,0,3.82,1.84,3.79,3.87-.03,2.13-1.71,3.74-3.87,3.71Z"/><path class="cls-5" d="M151.01,57.22c.24.08.64.25,1.03.58,1.13.97,1.17,2.5,1.18,2.98,0,.35-.01.89-.2,1.54-.29.66-.68,1.05-.98,1.28-1.88,1.45-5.23.42-6.14-1.16-.28-.49-.37-1.05-.37-1.05-.14-.83.1-1.5.24-1.81.11-.31.31-.75.67-1.18.69-.81,1.54-1.1,1.91-1.21.89-.28,1.78-.23,2.66.03Z"/><path class="cls-6" d="M118.65,84.2c.1-.15,1.11-1.6,2.93-1.74.63-.05,1.28.14,2.04.55,1.48.79,2.27,2.58,1.8,4.07-.53,1.68-2.02,2.96-3.8,2.88-1.87-.09-3.43-1.61-3.57-3.54-.01-.41.03-1.31.6-2.21Z"/><path class="cls-24" d="M135.95,157.09c-1.99-.02-3.64-1.73-3.64-3.78,0-1.86,1.78-3.59,3.69-3.6,1.97,0,3.78,1.87,3.72,3.88-.05,1.9-1.8,3.52-3.77,3.5Z"/><path class="cls-29" d="M145.02,120.41c-.01,1.96-1.77,3.75-3.7,3.73-1.96-.01-3.73-1.81-3.7-3.77.03-1.94,1.84-3.69,3.79-3.68,1.83.02,3.62,1.86,3.61,3.71Z"/><path class="cls-15" d="M138.65,65.96c1.79-1,3.81-.5,4.62,1.13.84,1.68.08,3.31-1.98,4.23-.23.06-.53.12-.9.11-.17,0-.57-.03-1.04-.22-.19-.07-.34-.16-.45-.22-.27-.2-.83-.67-1.12-1.48-.52-1.44.25-2.72.36-2.9l.51-.65Z"/><path class="cls-17" d="M119.61,111.95c.02-1.16.82-1.92,2.02-1.88,1.09.03,1.91.88,1.84,1.97-.08,1.12-.69,1.77-1.85,1.8-1.26.03-2.01-.69-2-1.89Z"/><path class="cls-11" d="M163.63,124.71c-.09.93-.81,1.53-1.88,1.64-.99.11-1.93-.93-1.93-1.97,0-1.03.96-1.98,1.95-1.95,1.04.03,1.9.97,1.86,2.27Z"/><path class="cls-2" d="M150.17,68.94c1.15-.02,1.97.75,1.99,1.86.01,1.05-.9,2.02-1.95,1.95-1.1-.07-1.81-.65-1.86-1.84-.05-1.17.67-1.95,1.83-1.97Z"/><path class="cls-26" d="M134.65,84.75c.01,1.14-.78,1.93-1.94,1.91-1.18-.02-1.78-.7-1.91-1.8-.11-.95.9-2.02,1.87-2.07.98-.05,1.96.92,1.98,1.96Z"/><path class="cls-16" d="M152.46,120.97c-1.05,0-2.09-.94-1.97-1.94.13-1.06.74-1.81,1.89-1.9.98-.08,2.05.94,2.07,1.89.02,1-.94,1.94-1.99,1.94Z"/><path class="cls-9" d="M155.68,151.15c-.98,0-2-.98-2-1.93,0-.98,1.01-1.96,2.03-1.89,1.12.08,1.79.7,1.84,1.86.05,1.12-.78,1.96-1.87,1.96Z"/><path class="cls-8" d="M132.5,144.74c0,.96-1.03,1.99-1.97,1.98-1.06-.01-1.88-.89-1.85-2.01.03-1.18.68-1.77,1.83-1.82,1.09-.05,2,.81,2,1.85Z"/><path class="cls-19" d="M155.28,140.32c-.04.98-.98,1.89-1.94,1.77-1.04-.14-1.64-.84-1.73-1.85-.08-.9.96-1.86,1.87-1.84.93.02,1.84,1,1.8,1.93Z"/><path class="cls-25" d="M123.86,155.91c-1.12-.11-1.74-.75-1.9-1.76-.14-.88.94-1.9,1.85-1.88,1.07.03,1.89.84,1.82,1.87-.07,1.11-.79,1.6-1.77,1.76Z"/><path class="cls-3" d="M154.38,109.41c.71.01,1.34.6,1.46,1.65.1.87-.94,1.98-1.81,1.93-1.04-.07-1.72-.68-1.84-1.73-.11-.98.76-1.81,2.2-1.85Z"/><path class="cls-4" d="M121.61,64.89c.45.98.17,1.85-.59,2.47-.68.56-1.36.31-2.11-.16-.3-.19-.54-.39-.65-.7-.32-.86.55-2.4,1.75-2.46.89-.05,1.52.73,1.6.84Z"/><path class="cls-18" d="M136.6,106.02c-.8-.04-1.53-.56-1.55-1.65-.02-1.12.71-1.79,1.78-1.94.87-.13,1.85.94,1.85,1.87,0,.92-.8,1.68-2.08,1.72Z"/><path class="cls-4" d="M130.03,90.17c.74.04,1.39.78,1.4,1.83.02,1.04-.74,1.66-1.8,1.69-1.09.03-1.73-.6-1.84-1.66-.11-.97.8-1.86,2.24-1.86Z"/><path class="cls-12" d="M154.93,86.04c-.02,1.12-.66,1.67-1.72,1.73-.98.06-1.86-.86-1.78-1.86.09-1.05.67-1.7,1.75-1.75,1.03-.05,1.76.76,1.74,1.87Z"/><path class="cls-20" d="M135.32,135.12c-.15,1.38-.84,1.91-1.88,1.9-.94,0-1.87-1.08-1.7-1.97.21-1.09.9-1.66,2.06-1.56,1.18.1,1.42.94,1.52,1.63Z"/><path class="cls-21" d="M140.44,128.64c1.17-.7,1.99-.1,2.49.86.48.93.32,1.9-.71,2.5-1.15.67-2,.27-2.64-.79.58-.46.5-1.82,1.86-1.32-.51-.3-1-.59-1-1.24Z"/><path class="cls-23" d="M140.44,128.64c.44.15.36.91,1.03.82.32-.05.78-.04.76.42-.01.22-.33.49-.57.62-.44.24-.57-.15-.72-.46-.02-.05-.16-.04-.27-.06-.38.38-.08,1.4-1.09,1.22-.66-1.17-.23-1.98.86-2.56Z"/><path class="cls-22" d="M122.5,138.02c-.49.34-.97.34-1.46,0,.49,0,.97,0,1.46,0Z"/><path class="cls-27" d="M220.42,90.7v13.78h27.65v13.69h-27.65v21.48h-17.72v-62.65h49.13v13.69h-31.41Z"/><path class="cls-27" d="M255.58,111.73v-34.72h17.72v34.19c0,10.74,4.47,15.03,11.9,15.03s11.81-4.3,11.81-15.03v-34.19h17.45v34.72c0,18.7-10.92,29.17-29.44,29.17s-29.44-10.47-29.44-29.17Z"/><path class="cls-27" d="M334.78,91.05h-19.24v-14.05h56.11v14.05h-19.15v48.59h-17.72v-48.59Z"/><path class="cls-27" d="M372.73,111.73v-34.72h17.72v34.19c0,10.74,4.47,15.03,11.9,15.03s11.81-4.3,11.81-15.03v-34.19h17.45v34.72c0,18.7-10.92,29.17-29.44,29.17s-29.44-10.47-29.44-29.17Z"/><path class="cls-27" d="M466.96,123h-9.67v16.65h-17.72v-62.65h28.64c17.09,0,27.83,8.86,27.83,23.18,0,9.22-4.47,16.02-12.26,19.78l13.51,19.69h-18.97l-11.37-16.65ZM467.14,90.96h-9.84v18.35h9.84c7.34,0,11.01-3.4,11.01-9.13s-3.67-9.22-11.01-9.22Z"/><path class="cls-27" d="M552.06,125.96v13.69h-50.29v-62.65h49.13v13.69h-31.59v10.56h27.83v13.25h-27.83v11.46h32.75Z"/><path class="cls-27" d="M617.48,77v62.65h-17.72v-24.43h-24.16v24.43h-17.72v-62.65h17.72v23.54h24.16v-23.54h17.72Z"/><path class="cls-27" d="M676.27,125.96v13.69h-50.29v-62.65h49.13v13.69h-31.59v10.56h27.83v13.25h-27.83v11.46h32.75Z"/><path class="cls-27" d="M724.06,127.48h-26.49l-4.92,12.17h-18.08l27.65-62.65h17.45l27.74,62.65h-18.43l-4.92-12.17ZM718.87,114.41l-8.05-20.05-8.05,20.05h16.11Z"/><path class="cls-27" d="M748.4,77h29.62c20.76,0,34.99,12.08,34.99,31.32s-14.23,31.32-34.99,31.32h-29.62v-62.65ZM777.31,125.51c10.65,0,17.81-6.35,17.81-17.18s-7.16-17.18-17.81-17.18h-11.19v34.37h11.19Z"/><path class="cls-6" d="M882.27,106.98h15.66v25.95c-7.25,5.19-17.18,7.96-26.31,7.96-19.96,0-34.54-13.51-34.54-32.58s14.59-32.58,34.9-32.58c11.72,0,21.21,4.03,27.38,11.46l-11.28,10.2c-4.3-4.74-9.22-6.98-15.21-6.98-10.74,0-17.9,7.07-17.9,17.9s7.16,17.9,17.72,17.9c3.31,0,6.44-.63,9.58-2.06v-17.18Z"/><path class="cls-6" d="M932.57,123h-9.67v16.65h-17.72v-62.65h28.64c17.09,0,27.83,8.86,27.83,23.18,0,9.22-4.47,16.02-12.26,19.78l13.51,19.69h-18.97l-11.37-16.65ZM932.75,90.96h-9.84v18.35h9.84c7.34,0,11.01-3.4,11.01-9.13s-3.67-9.22-11.01-9.22Z"/><path class="cls-6" d="M964.15,108.33c0-18.79,14.77-32.58,34.81-32.58s34.81,13.78,34.81,32.58-14.77,32.58-34.81,32.58-34.81-13.78-34.81-32.58ZM1015.88,108.33c0-10.83-7.43-17.9-16.91-17.9s-16.91,7.07-16.91,17.9,7.43,17.9,16.91,17.9,16.91-7.07,16.91-17.9Z"/><path class="cls-6" d="M1038.52,111.73v-34.72h17.72v34.19c0,10.74,4.47,15.03,11.9,15.03s11.81-4.3,11.81-15.03v-34.19h17.45v34.72c0,18.7-10.92,29.17-29.44,29.17s-29.44-10.47-29.44-29.17Z"/><path class="cls-6" d="M1161.84,100.18c0,14.23-10.74,23.09-27.83,23.09h-10.92v16.38h-17.72v-62.65h28.64c17.09,0,27.83,8.86,27.83,23.18ZM1143.94,100.18c0-5.82-3.67-9.22-11.01-9.22h-9.84v18.35h9.84c7.34,0,11.01-3.4,11.01-9.13Z"/></svg>