<?xml version="1.0" encoding="UTF-8"?><svg id="Layer_10" xmlns="http://www.w3.org/2000/svg" xmlns:xlink="http://www.w3.org/1999/xlink" viewBox="0 0 1185.92 189.89"><defs><style>.cls-1{fill:none;}.cls-1,.cls-2,.cls-3,.cls-4,.cls-5,.cls-6,.cls-7,.cls-8,.cls-9,.cls-10,.cls-11,.cls-12,.cls-13,.cls-14,.cls-15,.cls-16,.cls-17,.cls-18,.cls-19,.cls-20,.cls-21,.cls-22,.cls-23,.cls-24,.cls-25,.cls-26,.cls-27,.cls-28,.cls-29,.cls-30,.cls-31,.cls-32,.cls-33,.cls-34,.cls-35,.cls-36,.cls-37,.cls-38,.cls-39,.cls-40,.cls-41,.cls-42{stroke-width:0px;}.cls-2{fill:url(#linear-gradient);}.cls-3{fill:url(#linear-gradient-33);}.cls-4{fill:url(#linear-gradient-29);}.cls-5{fill:url(#linear-gradient-32);}.cls-6{fill:url(#linear-gradient-30);}.cls-7{fill:url(#linear-gradient-31);}.cls-8{fill:url(#linear-gradient-36);}.cls-9{fill:url(#linear-gradient-34);}.cls-10{fill:url(#linear-gradient-37);}.cls-11{fill:url(#linear-gradient-35);}.cls-12{fill:url(#linear-gradient-28);}.cls-13{fill:url(#linear-gradient-25);}.cls-14{fill:url(#linear-gradient-11);}.cls-15{fill:url(#linear-gradient-12);}.cls-16{fill:url(#linear-gradient-13);}.cls-17{fill:url(#linear-gradient-10);}.cls-18{fill:url(#linear-gradient-17);}.cls-19{fill:url(#linear-gradient-16);}.cls-20{fill:url(#linear-gradient-19);}.cls-21{fill:url(#linear-gradient-15);}.cls-22{fill:url(#linear-gradient-23);}.cls-23{fill:url(#linear-gradient-21);}.cls-24{fill:url(#linear-gradient-18);}.cls-25{fill:url(#linear-gradient-14);}.cls-26{fill:url(#linear-gradient-22);}.cls-27{fill:url(#linear-gradient-20);}.cls-28{fill:url(#linear-gradient-27);}.cls-29{fill:url(#linear-gradient-24);}.cls-30{fill:url(#linear-gradient-26);}.cls-31{fill:url(#linear-gradient-4);}.cls-32{fill:url(#linear-gradient-2);}.cls-33{fill:url(#linear-gradient-3);}.cls-34{fill:url(#linear-gradient-8);}.cls-35{fill:url(#linear-gradient-9);}.cls-36{fill:url(#linear-gradient-7);}.cls-37{fill:url(#linear-gradient-5);}.cls-38{fill:url(#linear-gradient-6);}.cls-40{fill:#606060;}.cls-41{fill:#1e98c8;}.cls-42{fill:#00527e;}</style><linearGradient id="linear-gradient" x1="43.89" y1="133.87" x2="147.89" y2="133.87" gradientUnits="userSpaceOnUse"><stop offset="0" stop-color="#cf8d00"/><stop offset=".12" stop-color="#f6ed5e"/><stop offset=".13" stop-color="#f5eb5c"/><stop offset=".16" stop-color="#ebd547"/><stop offset=".19" stop-color="#e5c73b"/><stop offset=".22" stop-color="#e3c337"/><stop offset=".34" stop-color="#ffe753"/><stop offset=".39" stop-color="#fce24e"/><stop offset=".45" stop-color="#f6d43f"/><stop offset=".51" stop-color="#ecbe28"/><stop offset=".53" stop-color="#e9b821"/><stop offset=".69" stop-color="#efd746"/><stop offset=".89" stop-color="#d39b0e"/><stop offset="1" stop-color="#d29408"/></linearGradient><linearGradient id="linear-gradient-2" x1="62.88" y1="47.55" x2="112.27" y2="47.55" xlink:href="#linear-gradient"/><linearGradient id="linear-gradient-3" x1="157.96" y1="133.23" x2="207.25" y2="133.23" xlink:href="#linear-gradient"/><linearGradient id="linear-gradient-4" x1="121.53" y1="47.54" x2="226.08" y2="47.54" xlink:href="#linear-gradient"/><linearGradient id="linear-gradient-5" x1="17.04" y1="89.75" x2="252.26" y2="89.75" gradientUnits="userSpaceOnUse"><stop offset=".04" stop-color="#e8d13c"/><stop offset=".07" stop-color="#dec53c"/><stop offset=".12" stop-color="#c4a73d"/><stop offset=".18" stop-color="#9f7c3f"/><stop offset=".5" stop-color="#cfb13d"/><stop offset=".58" stop-color="#b7932e"/><stop offset=".66" stop-color="#a57d23"/><stop offset=".73" stop-color="#9a6f1c"/><stop offset=".8" stop-color="#976b1a"/><stop offset=".83" stop-color="#9b701b"/><stop offset=".88" stop-color="#a88121"/><stop offset=".93" stop-color="#be9c2a"/><stop offset=".98" stop-color="#dbc136"/><stop offset="1" stop-color="#e8d13c"/></linearGradient><linearGradient id="linear-gradient-6" x1="103.28" y1="88.91" x2="132.36" y2="88.91" gradientUnits="userSpaceOnUse"><stop offset="0" stop-color="#3d2400"/><stop offset=".17" stop-color="#d6b13d"/><stop offset=".23" stop-color="#e2bc39"/><stop offset=".3" stop-color="#e9c237"/><stop offset=".45" stop-color="#7e560c"/><stop offset=".61" stop-color="#714907"/><stop offset=".68" stop-color="#825609"/><stop offset=".78" stop-color="#97670c"/><stop offset=".84" stop-color="#9f6d0d"/><stop offset=".87" stop-color="#96660b"/><stop offset=".91" stop-color="#7f5408"/><stop offset=".95" stop-color="#5b3704"/><stop offset=".99" stop-color="#3b1e00"/></linearGradient><linearGradient id="linear-gradient-7" x1="137.61" y1="108.76" x2="155.13" y2="108.76" xlink:href="#linear-gradient-6"/><linearGradient id="linear-gradient-8" x1="137.57" y1="69.74" x2="150.47" y2="69.74" xlink:href="#linear-gradient-6"/><linearGradient id="linear-gradient-9" x1="151.39" y1="84.32" x2="164.97" y2="84.32" xlink:href="#linear-gradient"/><linearGradient id="linear-gradient-10" x1="136.16" y1="93.05" x2="151.61" y2="93.05" xlink:href="#linear-gradient"/><linearGradient id="linear-gradient-11" x1="156.67" y1="102.34" x2="162.13" y2="102.34" xlink:href="#linear-gradient"/><linearGradient id="linear-gradient-12" x1="154.04" y1="71.93" x2="158.55" y2="71.93" xlink:href="#linear-gradient-6"/><linearGradient id="linear-gradient-13" x1="136.04" y1="104.24" x2="139.93" y2="104.24" xlink:href="#linear-gradient-6"/><linearGradient id="linear-gradient-14" x1="137.74" y1="84.29" x2="141.52" y2="84.29" xlink:href="#linear-gradient-6"/><linearGradient id="linear-gradient-15" x1="149.74" y1="63.96" x2="153.58" y2="63.96" xlink:href="#linear-gradient"/><linearGradient id="linear-gradient-16" x1="136.12" y1="76.64" x2="139.85" y2="76.64" xlink:href="#linear-gradient"/><linearGradient id="linear-gradient-17" x1="143.2" y1="110.01" x2="146.88" y2="110.01" xlink:href="#linear-gradient"/><linearGradient id="linear-gradient-18" x1="145.84" y1="93.64" x2="149.51" y2="93.64" xlink:href="#linear-gradient"/><linearGradient id="linear-gradient-19" x1="145.83" y1="67.82" x2="148.81" y2="67.82" xlink:href="#linear-gradient-6"/><linearGradient id="linear-gradient-20" x1="136.89" y1="89.43" x2="138.81" y2="89.43" xlink:href="#linear-gradient-6"/><linearGradient id="linear-gradient-21" x1="156.86" y1="95.61" x2="158.75" y2="95.61" xlink:href="#linear-gradient-6"/><linearGradient id="linear-gradient-22" x1="151.16" y1="69.02" x2="153.05" y2="69.02" xlink:href="#linear-gradient-6"/><linearGradient id="linear-gradient-23" x1="152.22" y1="92.95" x2="154.19" y2="92.95" xlink:href="#linear-gradient-6"/><linearGradient id="linear-gradient-24" x1="153.81" y1="107.95" x2="155.74" y2="107.95" xlink:href="#linear-gradient-6"/><linearGradient id="linear-gradient-25" x1="141.39" y1="105.74" x2="143.29" y2="105.74" xlink:href="#linear-gradient-6"/><linearGradient id="linear-gradient-26" x1="152.78" y1="103.48" x2="154.6" y2="103.48" xlink:href="#linear-gradient"/><linearGradient id="linear-gradient-27" x1="138.05" y1="110.35" x2="139.88" y2="110.35" xlink:href="#linear-gradient"/><linearGradient id="linear-gradient-28" x1="153.06" y1="89.05" x2="154.88" y2="89.05" xlink:href="#linear-gradient"/><linearGradient id="linear-gradient-29" x1="136.18" y1="66.54" x2="137.99" y2="66.54" xlink:href="#linear-gradient"/><linearGradient id="linear-gradient-30" x1="144.56" y1="85.59" x2="146.36" y2="85.59" xlink:href="#linear-gradient"/><linearGradient id="linear-gradient-31" x1="140.95" y1="79.49" x2="142.76" y2="79.49" xlink:href="#linear-gradient"/><linearGradient id="linear-gradient-32" x1="152.7" y1="76.53" x2="154.43" y2="76.53" xlink:href="#linear-gradient"/><linearGradient id="linear-gradient-33" x1="142.91" y1="101" x2="144.7" y2="101" xlink:href="#linear-gradient"/><linearGradient id="linear-gradient-34" x1="146.81" y1="98.55" x2="148.6" y2="98.55" xlink:href="#linear-gradient-6"/><linearGradient id="linear-gradient-35" x1="146.65" y1="98.36" x2="148.12" y2="98.36" xlink:href="#linear-gradient-6"/><linearGradient id="linear-gradient-36" x1="391.66" y1="61.91" x2="1060.45" y2="61.91" gradientUnits="userSpaceOnUse"><stop offset="0" stop-color="#ac8500"/><stop offset=".03" stop-color="#b29211"/><stop offset=".09" stop-color="#c2b73e"/><stop offset=".17" stop-color="#dcf185"/><stop offset=".18" stop-color="#def68b"/><stop offset=".21" stop-color="#d0db78"/><stop offset=".24" stop-color="#c1bf63"/><stop offset=".28" stop-color="#b7aa54"/><stop offset=".32" stop-color="#b19e4b"/><stop offset=".36" stop-color="#af9a49"/><stop offset=".61" stop-color="#cfbb42"/><stop offset=".82" stop-color="#e2dc66"/><stop offset=".85" stop-color="#d8cd54"/><stop offset=".93" stop-color="#c1a728"/><stop offset=".99" stop-color="#ac8500"/></linearGradient><linearGradient id="linear-gradient-37" x1="285.3" y1="118.24" x2="1168.29" y2="118.24" gradientUnits="userSpaceOnUse"><stop offset="0" stop-color="#9f7c3f"/><stop offset=".07" stop-color="#ad8d3e"/><stop offset=".22" stop-color="#d3b93c"/><stop offset=".29" stop-color="#e8d13c"/><stop offset=".36" stop-color="#dec538"/><stop offset=".48" stop-color="#c6a72e"/><stop offset=".64" stop-color="#a0761d"/><stop offset=".68" stop-color="#976b1a"/><stop offset=".72" stop-color="#9b701c"/><stop offset=".77" stop-color="#a88125"/><stop offset=".83" stop-color="#be9c32"/><stop offset=".87" stop-color="#cfb13d"/><stop offset=".9" stop-color="#d9be3c"/><stop offset=".95" stop-color="#e4cc3c"/><stop offset="1" stop-color="#e8d13c"/></linearGradient></defs><path class="cls-1" d="M134.71,27.29c2.82,0,5.1-2.28,5.1-5.1s-2.28-5.1-5.1-5.1-5.1,2.28-5.1,5.1,2.28,5.1,5.1,5.1Z"/><circle class="cls-1" cx="31.34" cy="79.69" r="5.88"/><path class="cls-1" d="M134.71,154.21c-2.79,0-5.04,2.24-5.09,5.01v.18c.05,2.77,2.31,5.01,5.09,5.01s5.1-2.28,5.1-5.1-2.28-5.1-5.1-5.1Z"/><circle class="cls-1" cx="237.96" cy="99.81" r="5.88"/><path class="cls-1" d="M134.65,51.24c-21.23.05-38.42,17.27-38.42,38.51s17.19,38.46,38.42,38.51c21.23-.05,38.42-17.27,38.42-38.51s-17.19-38.46-38.42-38.51Z"/><path class="cls-2" d="M134.71,146.13c-5.06,0-9.46,2.86-11.66,7.05-27.95-5.25-49.44-28.82-51.5-57.78h-.5s0-.08,0-.11c-7.82-.12-21.57.01-21.57.01,0,0-4.82,5.56-5.59,7.63,0,0,6.66.7,18.26,1.11,5.49,30.43,29.6,54.35,60.12,59.58,1.79,5.16,6.68,8.86,12.44,8.86,7.28,0,13.18-5.9,13.18-13.18s-5.9-13.18-13.18-13.18ZM134.71,164.41c-2.79,0-5.04-2.24-5.09-5.01v-.18c.05-2.77,2.31-5.01,5.09-5.01s5.1,2.28,5.1,5.1-2.28,5.1-5.1,5.1Z"/><path class="cls-32" d="M112.27,31.52c-.55-3.78-1.33-7.9-1.58-9.33-.07-.39-.13-.76-.19-1.13-23.69,8.26-41.87,28.23-47.63,52.99h10.75c5.36-19.58,19.87-35.38,38.64-42.53Z"/><path class="cls-33" d="M157.96,149.93v11.08c24.96-8.23,44.04-29.39,49.29-55.56h-10.67c-4.81,20.38-19.44,36.96-38.63,44.48Z"/><path class="cls-41" d="M208.66,93.49h-10.43s0,.04,0,.06h10.43s0-.04,0-.06Z"/><path class="cls-31" d="M134.71,35.37c5.02,0,9.39-2.81,11.61-6.94,27.87,5.1,49.37,28.4,51.73,57.14,0,.31,0,.49,0,.49l20.91-.2,7.11-8.78s-6.89-.73-18.88-1.13c-6.08-29.69-29.95-52.88-60-57.95-1.75-5.22-6.68-8.99-12.49-8.99-7.28,0-13.18,5.9-13.18,13.18s5.9,13.18,13.18,13.18ZM134.71,17.09c2.82,0,5.1,2.28,5.1,5.1s-2.28,5.1-5.1,5.1-5.1-2.28-5.1-5.1,2.28-5.1,5.1-5.1Z"/><path class="cls-37" d="M237.96,85.51c-5.65,0-10.52,3.28-12.84,8.04h-42.95c.1-1.26.16-2.52.16-3.8,0-26.28-21.31-47.59-47.59-47.59-.03,0-.07,0-.1,0-.03,0-.05,0-.08,0-.22,0-.44.01-.66.02-.42,0-.85.01-1.27.03-.55.02-1.1.06-1.65.1-.05,0-.11,0-.16.01-19.13,1.49-35.09,14.29-41.18,31.73h-45.15c-2.19-5.09-7.25-8.66-13.14-8.66-7.9,0-14.3,6.4-14.3,14.3s6.4,14.3,14.3,14.3c5.65,0,10.52-3.28,12.84-8.04h42.95c-.1,1.26-.16,2.52-.16,3.8,0,26.28,21.31,47.59,47.59,47.59.03,0,.07,0,.1,0,.03,0,.05,0,.08,0,.22,0,.44-.01.66-.02.42,0,.85-.01,1.27-.03.55-.02,1.1-.06,1.65-.1.05,0,.11,0,.16-.01,19.13-1.49,35.09-14.29,41.18-31.73h45.15c2.19,5.09,7.25,8.66,13.14,8.66,7.9,0,14.3-6.4,14.3-14.3s-6.4-14.3-14.3-14.3ZM31.34,85.56c-3.25,0-5.88-2.63-5.88-5.88s2.63-5.88,5.88-5.88,5.88,2.63,5.88,5.88-2.63,5.88-5.88,5.88ZM134.65,128.26c-21.23-.05-38.42-17.27-38.42-38.51s17.19-38.46,38.42-38.51c21.23.05,38.42,17.27,38.42,38.51s-17.19,38.46-38.42,38.51ZM237.96,105.69c-3.25,0-5.88-2.63-5.88-5.88s2.63-5.88,5.88-5.88,5.88,2.63,5.88,5.88-2.63,5.88-5.88,5.88Z"/><path class="cls-38" d="M132.36,114.77c-.07-6.1-.02-12.2-.03-18.3,0-.27.07-.56-.14-.91-.25.39-.6.54-.9.77-1.67,1.32-3.55,1.65-5.6,1.21-.33-.07-.38-.26-.3-.53.07-.25.18-.5.27-.74.12-.33.31-.42.67-.33,2.87.68,6-1.72,6.01-4.69.02-9.69.01-19.39,0-29.08,0-1.6-.69-2.98-1.85-4.01-3.15-2.78-8.07-1.53-9.2,2.56-.02.07-.1.48-.4.61-.19.08-.4.02-.56-.05-.05-.02-.11-.04-.16-.07-.18-.04-.39-.07-.64-.08-.26-.01-.49,0-.68.03-.07.01-.14.02-.21.03-.16.03-.45.09-.81.2-3.81,1.17-5.15,5.24-5.05,5.8.03.17.13.28.13.28.14.06.34.14.6.17.07,0,.12.01.14.01.72.04,1.75.43,1.75.43,2.29.86,4,.98,4.73,1.68.05.05.29.3.48.23.11-.04.17-.19.24-.46.21-.79.59-1.52,1.09-2.17.22-.29.22-.44.02-.74-.33-.52-.7-1.04-.68-1.71-.07-.24-.14-.47.16-.61.36-.03.62-.05.83-.07.14-.01.32-.03.42.08.06.06.06.14.06.17.04.4.46,1.26.93,1.71.16.16.36.29.36.29.1.07.21.15.37.22.15.06.32.12.52.16.22.05.42.07.59.08.15,0,.29,0,.44,0,.29-.06.58-.11.87-.17.26-.16.42.02.61.15.4.57.59.85.52,1.03-.08.22-.39.3-.94.44-.31.08-.58.12-.76.14h0c-.16.03-.41.06-.7.05-.41-.01-.72-.11-1.06-.21-.19-.06-.45-.15-.75-.28-.2.08-.64.3-.98.78-.28.39-.37.78-.4.99-.04.12-.08.26-.1.42-.02.15-.04.28-.04.4-.03.6.02,1.11.07,1.48.07.43.15.94.44,1.53.13.26.29.52.47.76.05.07.11.14.17.22.08.11.16.21.25.31.09.09.18.18.28.27.09.08.17.16.26.24.1.07.24.17.43.28.45.27.56.26.63.41.13.26-.04.62-.16.87-.05.1-.09.18-.13.23-.14.26-.35.27-.59.15-.3-.11-.67-.29-1.06-.56-.65-.45-1.05-.97-1.29-1.33-.7-.76-1.04-1.69-1.28-2.67-.03-.14-.12-.32-.25-.57-.41-.76-1-1.23-1.44-1.51-.11-.07-.21-.14-.33-.21-.24-.15-.47-.28-.7-.39-.27-.1-.54-.21-.81-.31-.15-.05-.29-.1-.44-.15-.44-.14-.98-.27-1.59-.35-.48-.06-.92-.08-1.3-.08-.25,0-.6.01-1.03.09,0,0-.22.04-.46.1-.53.13-1.65.42-2.75,1.13-1.74,1.12-2.55,2.72-2.92,3.43-.1.19-.19.39-.28.6-.15.37-.45,1.18-.54,2.17-.03.35-.03.62-.03.72,0,0,0,.36.05.71.12,1.01.96,3.45,1.46,4.04.04.04.16.18.13.32-.02.08-.1.14-.27.23-.57.31-1.74,1.23-2.23,1.76-.1.11-.47.51-.84,1.13-.23.39-.38.75-.48,1.02-.29.92-.35,1.66-.36,2.11,0,.58.06.97.09,1.11.08.38.19.65.28.88,0,0,.56,1.36,1.92,3.13.08.1.23.3.45.3.23,0,.4-.21.47-.28.25-.29.74-.72,1.77-1.35.33-.23.67-.46,1.01-.71.31-.22.61-.44.91-.67l.06-.03h.07s.08,0,.12,0c.44.02.92,1.14.87,1.3-.03.09-.12.16-.33.2-.03,0-.05,0-.06,0-.12,0-.4.13-1.02.54-.58.23-2.07,1.5-2.19,1.87-.21.26-.43.56-.64.92-.31.53-.53,1.03-.67,1.45-.15.32-.34.79-.45,1.39-.02.11-.06.35-.1.86-.03.45-.06,1.08-.04,1.83.04.25.29,1.75.89,2.66.11.17.42.63.86,1.13.1.11.2.22.3.33.25.26.51.52.76.78.22.2.46.42.74.64.28.22.55.41.8.57.27.33.7.47,1.1.36.45-.13.76-.55.75-1.04.12-.4.44-1.28,1.28-2.06.76-.7,1.56-.96,1.96-1.06.11-.04.22-.07.34-.1.25-.06.48-.11.69-.14.4-.07.82-.15,1.25-.25.13-.03.26-.06.38-.09.03-.21.06-.43.09-.66.03-.27.05-.53.06-.77.27-.96.49-1.67.57-1.87.02-.06.07-.17.15-.19.04,0,.09,0,.15.05.39.27.94.32,1.16.83-.36.32-.38.76-.41,1.2-.01.09-.02.17-.04.26-.12.57-.02,1.15-.06,1.73-.06.77.19,1.42.8,1.91.8,1.23,1.9,2.01,3.38,2.21.29.08.58.09.87,0,.09,0,.17-.02.26-.03.06-.04.11-.07.17-.1.23-.01.47-.02.73-.01.24,0,.47.01.68.03.02.05.06.08.12.08q1.15.24.78,1.19c-.24.23-.54.31-.86.35-.43.06-.87-.07-1.3.07-1.34.19-2.18,1.08-2.41,2.27-.15.79-.43.72-.95.65-.5-.16-.56-.58-.6-1.02-.01-.2,0-.36.03-.48.04-.23.12-.38.13-.42.07-.15.15-.27.22-.35.09-.14.18-.28.27-.43.1-.16.21-.31.31-.47-1.86-.74-3.18-1.99-3.89-3.84-.12-.3-.28-.43-.63-.42-1.7.04-2.84.79-2.84.79-.38.23-1.02.64-1.45,1.31-.32.51-.5,1.12-.5,1.12-.04.14-.07.25-.08.34-.01.08-.02.16-.04.24-.04.3-.08.61-.12.91v.62c0,.21,0,.46.04.73.02.14.05.27.08.39l.47,1.29c.61,1.3,1.61,2.25,2.75,3.07.05.04.1.09.14.13.05.03.12.07.21.11.4.21.78.36,1.04.44.27.09.73.11,1.64.17,1.04.06,1.16.01,1.26-.04.08-.05.3-.19.48-.13.03.01.07.03.11.09.04.06.09.15.15.28.24.47.25.75.47,1.26.04.09.1.23.2.4.03.06.07.11.11.16.15.18.34.46.62.77.11.11.24.25.41.41.12.12.3.28.55.44,0,0,.39.25.9.4.6.18,1.97.34,3.79.33.13-.02.3-.06.5-.12.04-.01.17-.05.34-.12.19-.08.44-.2.74-.39.45-.35,1.16-.96,1.72-1.91.93-1.56.96-3.12.96-3.85ZM122.91,82.76c-.82-.2-1.52-.15-1.94-.09-.76.11-1.34.38-1.7.57-.19.1-.4.24-.62.41-.27.21-.49.43-.65.62-.08.12-.18.3-.2.53-.05.4.15.65.31,1.02.23.55.23,1.03.22,1.75,0,.54-.08.92-.16,1.35-.07.38-.07.76-.28,1.2-.19.41-.34.47-.39.48-.1.03-.17.02-.89-.31-.32-.15-.43-.2-.5-.33-.09-.17-.06-.35-.03-.46.15-.72.39-1.09.5-1.55.09-.4.05-.71-.02-1.2-.1-.69-.33-1.22-.51-1.56-.17-.31-.34-.55-.48-.72-.49-.65-1.01-1.01-1.35-1.22-.31-.18-.82-.49-1.55-.61-.62-.11-1.01-.01-1.2-.29-.04-.07-.05-.29-.07-.74-.02-.5,0-.63.09-.71.06-.05.13-.06.38-.05.47.01.73.06.73.06.69.14,1.04.21,1.11.23.41.12,1.03.31,1.62.74.33.24.49.36.66.55.09.1.18.22.36.35.15.11.3.16.4.2,0,0,.3-.22.31-.22,0,0,.35-.25.36-.25.15-.13.38-.32.69-.52.33-.22,2.61-1.66,5.38-.92,1.36.36,2.18,1.07,2.84,1.64.26.22,1.24,1.06,1.04,1.5-.04.08-.21.18-.56.37-.57.32-.69.31-.75.29-.17-.04-.23-.16-.5-.46-.19-.22-.41-.41-.62-.63-.67-.69-1.8-.97-2.02-1.02Z"/><path class="cls-36" d="M141.52,121.27c-2.24-.03-4.02-2.04-3.9-4.38.11-2.14,2.16-3.91,4.31-3.74,1.29.1,2.32.68,3.07,1.71.24.32.41.31.7.19.96-.41,1.91-.8,2.87-1.2.27-.11.43-.25.38-.59-.13-.99.24-1.82,1.01-2.43.31-.24.29-.44.18-.73-.49-1.26-.98-2.52-1.44-3.8-.11-.31-.32-.29-.56-.34-.96-.19-1.57-.81-1.68-1.67-.1-.81.28-1.52,1.01-1.93.34-.19.71-.23,1.06-.15.57.14.88-.11,1.19-.52.35-.46.73-.91,1.12-1.34.55-.6.98-1.14.56-2.07-.27-.6.39-1.68,1.06-1.87.93-.27,1.47-.33,2.19.45.51.55.63,1.53.27,2.16-.4.7-1.3,1.17-2.02.95-.36-.11-.57-.1-.81.19-.64.79-1.29,1.58-1.95,2.35-.21.24-.28.43-.14.77.33.75.25,1.49-.35,2.07-.27.26-.23.47-.12.77.48,1.22.95,2.43,1.39,3.66.13.37.31.45.69.45,1.57,0,2.73,1.12,2.8,2.65.07,1.44-1.04,2.72-2.53,2.85-.88.07-1.68-.24-2.26-.94-.23-.27-.39-.35-.72-.2-.94.43-1.9.84-2.86,1.23-.31.13-.44.24-.37.63.47,2.61-1.49,4.87-4.16,4.83Z"/><path class="cls-34" d="M142.7,68.05c.3.13.53.21.84.47.13.11.23.23.24.25.1.12.18.24.23.34.08.15.16.29.24.44.05.15.1.29.15.44,0,.36.09.74-.01,1.06-.1.33-.07.52,0,.67.06.1.14.16.29.27.13.09.25.14.33.18.2.11.4.21.6.32.1.05.28.14.49.25.63.32.76.41.97.42.23.01.48-.04.78-.19,1.06-.55,2.3.18,2.56,1.26.27,1.14-.4,2.08-1.68,2.32-.23.04-.31.11-.38.34-.2.69-.44,1.37-.68,2.05-.1.29,0,.48.2.7.74.8.82,1.71.24,2.47-.62.81-1.53.97-2.51.44-.1-.06-.22-.15-.34-.27-.12-.12-.2-.23-.26-.33-.78-1.18.1-2.71,1.21-2.79.44-.03.63-.27.72-.66.08-.3.17-.6.28-.9.18-.46.34-.91.2-1.34-.07-.21-.21-.19-.44-.6-.12-.2-.17-.34-.21-.47-.01-.03-.06-.18-.08-.4-.04-.33.04-.42-.01-.56-.11-.27-.38-.43-.67-.59-.57-.31-1.15-.62-1.69-.98-.35-.23-.54-.19-.86.07-.91.74-1.94.85-2.99.35-1.06-.51-1.59-1.41-1.52-2.58.06-1.16.64-2.02,1.76-2.41.46-.16.59-.38.56-.83-.04-.6-.04-1.22,0-1.82.03-.48-.15-.65-.61-.78-2.21-.64-3.33-2.47-3.02-4.84.18-1.41,1.64-2.76,3.21-3.1,1.48-.32,3.34.45,4.19,1.72,1.03,1.55.93,3.1.01,4.65-.06.16-.17.37-.35.57-.06.07-.13.13-.19.18-.13.1-.25.2-.38.3-.28.13-.56.27-.84.4q-1.18.3-1.18,1.51c0,.48.02.96.03,1.43.18.2.31.45.57.57Z"/><path class="cls-35" d="M164.62,90.53c-.16.36-.69,1.46-1.92,2.06-1.59.77-3.6.33-4.7-.92-1.07-1.22-1.56-3.09-.49-4.68.19-.28.24-.54-.05-.83-.72-.71-1.52-1.34-2.18-2.11-.22-.26-.52-.18-.85-.03-.86.39-1.93.08-2.57-.66-.5-.58-.63-1.59-.29-2.26.45-.88,1.39-1.42,2.32-1.3.21.03.43.05.61.22.53.5,1.03.43,1.61,0,.85-.62,1.76-1.16,2.64-1.74.16-.34.03-.71.08-1.06.03-.25.06-.51.29-.68.39-.57.96-.81,1.62-.87.13.01.3.04.49.1.26.09.46.23.58.33.14.17.29.34.43.5.03.08.06.16.09.23.12.31.16.61.16.8.03.83-.5,1.35-.5,1.35-.64.63-1.56.45-1.69.43-.3-.06-.53-.17-.68-.26-.21-.21-.42-.24-.64-.02-1.1.59-2.17,1.22-3.16,1.99.11.31.14.57.14.74,0,.09,0,.25-.04.44-.06.26-.16.46-.24.58-.12.27-.05.5.15.7.7.8,1.55,1.43,2.34,2.12.08.02.16.04.26.04.45,0,.77-.33.84-.42.23-.12.55-.26.94-.34.61-.13,1.13-.09,1.46-.03.25.04.58.13.94.29.43.19.75.42.96.61.29.3.51.57.67.78.34.46.45.73.49.82.07.18.11.33.13.41.17.67.13,1.27.05,1.71-.09.32-.18.64-.28.96Z"/><path class="cls-17" d="M136.44,95.63c.61-1.28,1.95-2.04,3.37-1.86.45.06.74,0,.88-.49.09-.32.24-.64.41-.93.43-.73.69-1.38.03-2.21-.46-.58-.03-1.68.61-2.1.82-.55,1.65-.53,2.29.17.36.39.71.44,1.16.32.79-.21,1.58-.46,2.38-.62.38-.08.37-.33.43-.57.23-.83.96-1.44,1.76-1.44.88,0,1.58.59,1.79,1.5.18.78-.22,1.56-1.01,1.97-.77.4-1.43.3-2.09-.4-.28-.3-.53-.36-.89-.26-.87.23-1.73.45-2.61.64-.29.06-.3.22-.35.44-.24,1.01-.79,1.47-1.82,1.54-.31.02-.49.13-.61.41-.27.64-.54,1.29-.86,1.91-.21.4-.12.63.21.92,1.05.92,1.37,2.36.87,3.61-.5,1.24-1.77,2.05-3.16,1.99-1.27-.06-2.14-.76-2.81-1.78-.11-.3-.17-.62-.29-.93,0-.35,0-.71,0-1.06.08-.27.15-.54.28-.79Z"/><path class="cls-14" d="M160.37,104.89c-.56.21-1.05.17-1.23.15-1.07-.12-1.85-.7-2.26-1.7-.42-1.02-.19-1.96.52-2.77.62-.72,1.45-1.1,2.38-.9.54.11,1,.33,1.36.65.17.15.86.75.97,1.73,0,.08.02.22.01.39-.05.95-.69,2.04-1.75,2.45Z"/><path class="cls-15" d="M156.16,69.69c1.31-.03,2.33.92,2.38,2.19.05,1.19-1.02,2.29-2.23,2.29-1.26,0-2.21-.96-2.28-2.24-.06-1.21.98-2.37,2.13-2.25Z"/><path class="cls-16" d="M138.33,102.37c1.04.25,1.7,1.08,1.59,1.99-.11.95-.99,1.75-1.91,1.75-.93,0-1.81-.8-1.96-1.78-.12-.77.56-1.63,1.56-1.96.24.07.48.07.73,0Z"/><path class="cls-25" d="M139.59,86.17c-1.02-.01-1.85-.84-1.85-1.84,0-1,.91-1.92,1.89-1.92,1,0,1.9.91,1.88,1.92-.01,1.06-.85,1.86-1.92,1.84Z"/><path class="cls-21" d="M152.49,62.25c.12.04.32.12.51.29.56.48.58,1.24.59,1.48,0,.17,0,.44-.1.76-.15.33-.34.52-.49.64-.93.72-2.6.21-3.05-.58-.14-.24-.19-.52-.19-.52-.07-.41.05-.75.12-.9.05-.15.15-.37.33-.59.34-.4.76-.55.95-.6.44-.14.88-.11,1.32.01Z"/><path class="cls-19" d="M136.42,75.65c.05-.07.55-.79,1.45-.87.31-.02.63.07,1.01.27.73.39,1.13,1.28.89,2.02-.26.83-1,1.47-1.89,1.43-.93-.04-1.7-.8-1.77-1.76,0-.2.01-.65.3-1.1Z"/><path class="cls-18" d="M145,111.85c-.99-.01-1.81-.86-1.81-1.88,0-.92.88-1.78,1.83-1.79.98,0,1.88.93,1.85,1.93-.02.94-.89,1.75-1.87,1.74Z"/><path class="cls-24" d="M149.51,93.63c0,.98-.88,1.86-1.84,1.85-.98,0-1.85-.9-1.84-1.87.01-.96.91-1.83,1.88-1.83.91,0,1.8.92,1.79,1.84Z"/><path class="cls-20" d="M146.35,66.59c.89-.49,1.89-.25,2.29.56.42.84.04,1.64-.98,2.1-.11.03-.27.06-.45.06-.08,0-.28-.01-.52-.11-.09-.04-.17-.08-.22-.11-.13-.1-.41-.33-.56-.74-.26-.72.13-1.35.18-1.44.08-.11.17-.22.25-.32Z"/><path class="cls-27" d="M136.89,89.43c0-.58.41-.95,1-.93.54.02.95.44.91.98-.04.56-.34.88-.92.89-.63.01-1-.34-.99-.94Z"/><path class="cls-23" d="M158.75,95.77c-.04.46-.4.76-.93.82-.49.05-.96-.46-.96-.98,0-.51.48-.98.97-.97.52.02.94.48.92,1.13Z"/><path class="cls-26" d="M152.07,68.07c.57-.01.98.37.99.93,0,.52-.45,1-.97.97-.55-.04-.9-.32-.93-.91-.03-.58.33-.97.91-.98Z"/><path class="cls-40" d="M144.36,75.92c0,.57-.39.96-.96.95-.58,0-.88-.35-.95-.89-.06-.47.45-1,.93-1.03.49-.03.97.46.98.97Z"/><path class="cls-22" d="M153.2,93.91c-.52,0-1.04-.47-.98-.96.07-.52.37-.9.94-.94.49-.04,1.02.46,1.03.94.01.5-.47.96-.99.97Z"/><path class="cls-29" d="M154.8,108.9c-.49,0-.99-.49-1-.96,0-.49.5-.97,1.01-.94.56.04.89.35.92.92.02.55-.39.97-.93.97Z"/><path class="cls-13" d="M143.29,105.71c0,.48-.51.99-.98.98-.53,0-.93-.44-.92-1,.01-.58.34-.88.91-.9.54-.02.99.4.99.92Z"/><path class="cls-30" d="M154.6,103.52c-.02.49-.49.94-.96.88-.52-.07-.81-.41-.86-.92-.04-.45.48-.93.93-.92.46,0,.91.49.9.96Z"/><path class="cls-28" d="M139,111.26c-.56-.05-.87-.37-.94-.87-.07-.44.46-.94.92-.93.53.01.94.42.9.93-.03.55-.39.79-.88.87Z"/><path class="cls-12" d="M154.16,88.17c.35,0,.67.3.72.82.05.43-.47.98-.9.96-.52-.03-.85-.34-.92-.86-.06-.49.38-.9,1.09-.92Z"/><path class="cls-4" d="M137.88,66.06c.22.49.08.92-.29,1.23-.34.28-.67.15-1.05-.08-.15-.09-.27-.19-.32-.35-.16-.43.27-1.19.87-1.22.44-.02.75.36.8.42Z"/><path class="cls-6" d="M145.33,86.48c-.4-.02-.76-.28-.77-.82-.01-.56.35-.89.88-.97.43-.06.92.47.92.93,0,.46-.4.83-1.03.85Z"/><path class="cls-7" d="M142.07,78.62c.37.02.69.39.7.91,0,.52-.37.82-.89.84-.54.01-.86-.3-.92-.82-.05-.48.4-.92,1.11-.92Z"/><path class="cls-5" d="M154.43,76.56c0,.56-.33.83-.85.86-.49.03-.92-.43-.88-.92.04-.52.33-.84.87-.87.51-.02.87.38.86.93Z"/><path class="cls-3" d="M144.7,100.93c-.08.68-.42.95-.93.94-.47,0-.93-.54-.84-.98.1-.54.45-.82,1.02-.77.59.05.7.47.75.81Z"/><path class="cls-9" d="M147.24,97.72c.58-.35.99-.05,1.24.43.24.46.16.94-.35,1.24-.57.33-.99.14-1.31-.39.29-.23.25-.9.92-.66-.25-.15-.5-.29-.5-.62Z"/><path class="cls-11" d="M147.24,97.72c.22.07.18.45.51.4.16-.02.39-.02.38.21,0,.11-.16.24-.28.31-.22.12-.28-.07-.36-.23-.01-.02-.08-.02-.13-.03-.19.19-.04.7-.54.6-.33-.58-.12-.98.43-1.27Z"/><path class="cls-42" d="M138.33,102.37c-.24.17-.48.17-.73,0,.24,0,.48,0,.73,0Z"/><path class="cls-8" d="M391.66,54.28c0-5.91,4.58-8.87,13.74-8.87h5.63c1.57,0,2.39.67,2.39,1.96s-.81,1.96-2.39,1.96h-5.58c-5.77,0-8.63,1.72-8.63,5.06v5.77h28.29c1.57,0,2.34.67,2.34,1.96s-.76,1.96-2.34,1.96h-28.29v12.59c0,1.34-.91,2-2.58,2s-2.58-.67-2.58-2v-22.37Z"/><path class="cls-8" d="M448.94,78.42c-9.3,0-13.98-3.1-13.98-9.35v-21.89c0-1.34.86-2,2.58-2s2.58.67,2.58,2v21.75c0,3.72,3,5.58,9.06,5.58h10.4c6.06,0,9.02-1.86,9.02-5.58v-21.75c0-1.34.91-2,2.62-2s2.58.67,2.58,2v21.89c0,6.25-4.72,9.35-13.98,9.35h-10.88Z"/><path class="cls-8" d="M496.3,49.32h-13.02c-1.57,0-2.38-.62-2.38-1.96s.81-1.96,2.38-1.96h31.15c1.62,0,2.43.67,2.43,1.91,0,1.34-.81,2-2.43,2h-12.97v27.33c0,1.34-.86,2-2.53,2-1.76,0-2.62-.67-2.62-2v-27.33Z"/><path class="cls-8" d="M537.89,78.42c-9.3,0-13.98-3.1-13.98-9.35v-21.89c0-1.34.86-2,2.58-2s2.58.67,2.58,2v21.75c0,3.72,3,5.58,9.06,5.58h10.4c6.06,0,9.02-1.86,9.02-5.58v-21.75c0-1.34.91-2,2.62-2s2.58.67,2.58,2v21.89c0,6.25-4.72,9.35-13.98,9.35h-10.88Z"/><path class="cls-8" d="M577.29,65.49v11.16c0,1.34-.91,2-2.62,2s-2.53-.67-2.53-2v-29.57c0-1.1.76-1.67,2.19-1.67h22.42c9.87,0,14.83,2.67,14.83,8.11v3.53c0,5.29-4.96,7.97-14.83,7.97h-11.4l22.13,9.73c1,.43,1.43,1,1.43,1.86,0,1.24-.95,2.05-2.62,2.05-.72,0-1.05-.1-1.81-.48l-27.19-12.69ZM577.29,61.39h19.6c6.39,0,9.54-1.43,9.54-4.34v-3.43c0-2.86-3.15-4.29-9.49-4.29h-19.27c-.24,0-.38.1-.38.33v11.73Z"/><path class="cls-8" d="M633.91,78.42c-9.3,0-13.98-3.05-13.98-9.16v-14.83c0-6.01,4.58-9.02,13.74-9.02h6.82c1.57,0,2.38.67,2.38,1.96s-.81,1.96-2.38,1.96h-6.73c-5.77,0-8.68,1.72-8.68,5.2v5.39h28.43c1.53,0,2.29.62,2.29,1.86s-.76,1.86-2.29,1.86h-28.43v5.49c0,3.58,2.96,5.39,9.06,5.39h19.37c1.62,0,2.43.67,2.43,1.96s-.81,1.96-2.43,1.96h-19.6Z"/><path class="cls-8" d="M721.24,71.17c0,4.87-4.1,7.25-12.26,7.25h-24.52c-1.48,0-2.29-.62-2.29-1.86v-29.29c0-1.24.81-1.86,2.29-1.86h23.75c8.3,0,12.5,2.62,12.5,7.87v2.72c0,2.53-1.33,4.39-3.96,5.68,2.96,1.34,4.48,3.39,4.48,6.15v3.34ZM715.61,53.42c0-2.72-2.43-4.1-7.35-4.1h-20.56c-.24,0-.38.1-.38.33v10.3h21.32c4.63,0,6.96-1.29,6.96-3.86v-2.67ZM716.09,67.64c0-2.67-2.43-4.01-7.3-4.01h-21.46v10.54c0,.24.14.33.38.33h21.08c4.87,0,7.3-1.24,7.3-3.77v-3.1Z"/><path class="cls-8" d="M732.2,78.42c-1.48,0-2.29-.57-2.29-1.67v-29.67c0-1.1.76-1.67,2.19-1.67h22.42c9.87,0,14.83,3.05,14.83,9.21v14.6c0,6.15-4.96,9.21-14.83,9.21h-22.32ZM764.21,54.76c0-3.62-3.15-5.44-9.49-5.44h-19.27c-.24,0-.38.1-.38.29v24.61c0,.19.14.29.38.29h19.22c6.39,0,9.54-1.81,9.54-5.44v-14.31Z"/><path class="cls-8" d="M792.4,78.42c-9.3,0-13.98-3.05-13.98-9.16v-14.83c0-6.01,4.58-9.02,13.74-9.02h6.82c1.57,0,2.38.67,2.38,1.96s-.81,1.96-2.38,1.96h-6.73c-5.77,0-8.68,1.72-8.68,5.2v5.39h28.43c1.53,0,2.29.62,2.29,1.86s-.76,1.86-2.29,1.86h-28.43v5.49c0,3.58,2.96,5.39,9.06,5.39h19.37c1.62,0,2.43.67,2.43,1.96s-.81,1.96-2.43,1.96h-19.6Z"/><path class="cls-8" d="M835.99,49.32h-13.02c-1.57,0-2.38-.62-2.38-1.96s.81-1.96,2.38-1.96h31.15c1.62,0,2.43.67,2.43,1.91,0,1.34-.81,2-2.43,2h-12.97v27.33c0,1.34-.86,2-2.53,2-1.76,0-2.62-.67-2.62-2v-27.33Z"/><path class="cls-8" d="M920.55,71.17c0,4.87-4.1,7.25-12.26,7.25h-24.52c-1.48,0-2.29-.62-2.29-1.86v-29.29c0-1.24.81-1.86,2.29-1.86h23.75c8.3,0,12.5,2.62,12.5,7.87v2.72c0,2.53-1.33,4.39-3.96,5.68,2.96,1.34,4.48,3.39,4.48,6.15v3.34ZM914.93,53.42c0-2.72-2.43-4.1-7.35-4.1h-20.56c-.24,0-.38.1-.38.33v10.3h21.32c4.63,0,6.96-1.29,6.96-3.86v-2.67ZM915.4,67.64c0-2.67-2.43-4.01-7.3-4.01h-21.46v10.54c0,.24.14.33.38.33h21.08c4.87,0,7.3-1.24,7.3-3.77v-3.1Z"/><path class="cls-8" d="M959.76,69.59h-24.09l-4.91,7.68c-.62.95-1.48,1.38-2.48,1.38-1.57,0-2.62-.72-2.62-1.96,0-.48.1-.86.53-1.48l18.89-28.76c.57-.86,1.57-1.24,2.62-1.29,1.05,0,1.96.43,2.53,1.29l18.94,28.71c.48.62.62,1.05.62,1.53,0,1.24-1.05,1.96-2.62,1.96-.95,0-1.81-.43-2.43-1.38l-4.96-7.68ZM938.06,65.92h19.37l-9.73-15.07-9.63,15.07Z"/><path class="cls-8" d="M982.32,46.22l28.76,25.38v-24.47c0-1.29.86-1.96,2.58-1.96s2.58.67,2.58,1.96v29.53c0,1.34-.91,2-2.72,2-1.05,0-1.72-.38-2.53-1.1l-28.71-25.38v24.47c0,1.34-.91,2-2.62,2s-2.53-.67-2.53-2v-29.43c0-1.38.91-2.05,2.67-2.05,1,0,1.72.33,2.53,1.05Z"/><path class="cls-8" d="M1030.87,64.63v12.02c0,1.34-.91,2-2.58,2s-2.58-.67-2.58-2v-29.53c0-1.29.91-1.96,2.58-1.96s2.58.67,2.58,1.96v11.73l24.42-13.12c.71-.38,1.33-.57,2-.57,1.53,0,2.43.72,2.43,1.96,0,.62-.29,1.34-1.29,1.86l-24.47,12.64,24.95,13.02c1.19.62,1.53,1.14,1.53,2,0,1.24-.95,2-2.67,2-.48,0-1.1-.05-2-.62l-24.9-13.4Z"/><path class="cls-39" d="M298.31,127.28l-.3-2.21h-.13c-1.15,1.38-3.36,2.6-6.29,2.6-4.16,0-6.29-2.5-6.29-5.03,0-4.23,4.42-6.55,12.37-6.51v-.36c0-1.45-.47-4.05-4.67-4.05-1.91,0-3.91.51-5.35,1.3l-.85-2.1c1.7-.94,4.17-1.56,6.76-1.56,6.29,0,7.82,3.65,7.82,7.16v6.55c0,1.52.08,3,.34,4.2h-3.4ZM297.75,118.35c-4.08-.07-8.71.54-8.71,3.94,0,2.06,1.62,3.04,3.53,3.04,2.68,0,4.38-1.45,4.97-2.93.13-.33.21-.69.21-1.01v-3.04Z"/><path class="cls-39" d="M316.03,123.45c1.66.87,4.08,1.59,6.63,1.59,3.78,0,5.99-1.7,5.99-4.16,0-2.28-1.53-3.58-5.4-4.85-4.67-1.41-7.56-3.47-7.56-6.91,0-3.8,3.7-6.62,9.26-6.62,2.93,0,5.06.58,6.33,1.19l-1.02,2.57c-.94-.43-2.85-1.16-5.44-1.16-3.91,0-5.4,1.99-5.4,3.65,0,2.28,1.74,3.4,5.69,4.7,4.84,1.59,7.31,3.58,7.31,7.16,0,3.76-3.27,7.02-10.03,7.02-2.76,0-5.78-.69-7.31-1.56l.93-2.64Z"/><path class="cls-39" d="M354.57,122.51c0,1.81.04,3.4.17,4.78h-3.32l-.21-2.86h-.08c-.98,1.41-3.14,3.26-6.8,3.26-3.23,0-7.1-1.52-7.1-7.67v-10.24h3.74v9.7c0,3.33,1.19,5.57,4.59,5.57,2.51,0,4.25-1.48,4.93-2.89.21-.47.34-1.05.34-1.63v-10.74h3.74v12.73Z"/><path class="cls-39" d="M360.61,127.28c.08-1.19.17-2.97.17-4.52v-21.16h3.7v11h.09c1.32-1.95,3.7-3.22,7.01-3.22,5.1,0,8.71,3.62,8.67,8.94,0,6.26-4.63,9.37-9.22,9.37-2.97,0-5.35-.98-6.88-3.29h-.13l-.17,2.89h-3.23ZM364.48,120.26c0,.4.09.8.17,1.16.72,2.21,2.89,3.73,5.61,3.73,3.91,0,6.25-2.71,6.25-6.73,0-3.51-2.12-6.51-6.12-6.51-2.55,0-4.93,1.48-5.69,3.91-.08.36-.21.8-.21,1.3v3.15Z"/><path class="cls-39" d="M384.45,124.03c1.11.61,3.06,1.27,4.93,1.27,2.72,0,4-1.16,4-2.6,0-1.52-1.06-2.35-3.83-3.22-3.7-1.12-5.44-2.86-5.44-4.96,0-2.82,2.68-5.14,7.1-5.14,2.08,0,3.91.51,5.06,1.08l-.94,2.32c-.81-.43-2.29-1.01-4.21-1.01-2.21,0-3.44,1.09-3.44,2.39,0,1.45,1.23,2.1,3.91,2.97,3.57,1.16,5.4,2.68,5.4,5.28,0,3.08-2.8,5.25-7.69,5.25-2.25,0-4.33-.47-5.78-1.19l.93-2.42Z"/><path class="cls-39" d="M405.96,104.85c.04,1.09-.89,1.95-2.38,1.95-1.32,0-2.25-.87-2.25-1.95s.98-1.99,2.34-1.99,2.29.87,2.29,1.99ZM401.79,127.28v-17.51h3.74v17.51h-3.74Z"/><path class="cls-39" d="M429.5,101.6v21.16c0,1.56.04,3.33.17,4.52h-3.36l-.17-3.04h-.08c-1.15,1.95-3.65,3.44-7.01,3.44-4.97,0-8.8-3.58-8.8-8.9-.04-5.82,4.21-9.41,9.22-9.41,3.15,0,5.27,1.27,6.21,2.68h.08v-10.46h3.74ZM425.76,116.9c0-.4-.04-.94-.17-1.34-.55-2.03-2.59-3.69-5.4-3.69-3.87,0-6.16,2.89-6.16,6.77,0,3.55,2.04,6.48,6.08,6.48,2.51,0,4.8-1.41,5.48-3.8.13-.43.17-.87.17-1.38v-3.04Z"/><path class="cls-39" d="M439.87,104.85c.04,1.09-.89,1.95-2.38,1.95-1.32,0-2.25-.87-2.25-1.95s.98-1.99,2.34-1.99,2.29.87,2.29,1.99ZM435.7,127.28v-17.51h3.74v17.51h-3.74Z"/><path class="cls-39" d="M457.04,127.28l-.3-2.21h-.13c-1.15,1.38-3.36,2.6-6.29,2.6-4.16,0-6.29-2.5-6.29-5.03,0-4.23,4.42-6.55,12.37-6.51v-.36c0-1.45-.47-4.05-4.67-4.05-1.91,0-3.91.51-5.35,1.3l-.85-2.1c1.7-.94,4.17-1.56,6.76-1.56,6.29,0,7.82,3.65,7.82,7.16v6.55c0,1.52.08,3,.34,4.2h-3.4ZM456.49,118.35c-4.08-.07-8.71.54-8.71,3.94,0,2.06,1.62,3.04,3.53,3.04,2.68,0,4.38-1.45,4.97-2.93.13-.33.21-.69.21-1.01v-3.04Z"/><path class="cls-39" d="M466.13,115.23c0-2.06-.04-3.83-.17-5.46h3.27l.13,3.44h.17c.93-2.35,3.19-3.83,5.69-3.83.42,0,.72.04,1.06.11v3c-.38-.07-.76-.11-1.28-.11-2.63,0-4.5,1.7-5.01,4.09-.08.43-.17.94-.17,1.48v9.33h-3.7v-12.05Z"/><path class="cls-39" d="M482.45,109.77l4.5,10.35c.47,1.16.98,2.53,1.32,3.58h.08c.38-1.05.81-2.39,1.32-3.65l4.08-10.27h3.95l-5.61,12.48c-2.68,6.01-4.5,9.08-7.05,10.96-1.83,1.38-3.66,1.92-4.59,2.06l-.93-2.68c.93-.25,2.17-.76,3.27-1.56,1.02-.69,2.29-1.92,3.14-3.55.17-.33.3-.58.3-.76s-.08-.43-.25-.83l-7.61-16.14h4.08Z"/><path class="cls-39" d="M528.73,118.38c0,6.48-5.27,9.3-10.24,9.3-5.57,0-9.86-3.47-9.86-9.01,0-5.86,4.5-9.3,10.2-9.3s9.9,3.65,9.9,9.01ZM512.41,118.56c0,3.83,2.59,6.73,6.25,6.73s6.25-2.86,6.25-6.8c0-2.97-1.74-6.73-6.16-6.73s-6.33,3.47-6.33,6.8Z"/><path class="cls-39" d="M533.83,127.28v-15.09h-2.89v-2.42h2.89v-.83c0-2.46.64-4.7,2.38-6.11,1.4-1.16,3.27-1.63,5.01-1.63,1.32,0,2.46.25,3.19.51l-.51,2.46c-.55-.22-1.32-.4-2.38-.4-3.19,0-4,2.39-4,5.06v.94h4.97v2.42h-4.97v15.09h-3.7Z"/><path class="cls-39" d="M554.49,123.45c1.66.87,4.08,1.59,6.63,1.59,3.78,0,5.99-1.7,5.99-4.16,0-2.28-1.53-3.58-5.4-4.85-4.67-1.41-7.56-3.47-7.56-6.91,0-3.8,3.7-6.62,9.26-6.62,2.93,0,5.06.58,6.33,1.19l-1.02,2.57c-.94-.43-2.85-1.16-5.44-1.16-3.91,0-5.4,1.99-5.4,3.65,0,2.28,1.74,3.4,5.69,4.7,4.84,1.59,7.31,3.58,7.31,7.16,0,3.76-3.27,7.02-10.03,7.02-2.76,0-5.78-.69-7.31-1.56l.93-2.64Z"/><path class="cls-39" d="M594.69,118.38c0,6.48-5.27,9.3-10.24,9.3-5.57,0-9.86-3.47-9.86-9.01,0-5.86,4.5-9.3,10.2-9.3s9.9,3.65,9.9,9.01ZM578.37,118.56c0,3.83,2.59,6.73,6.25,6.73s6.25-2.86,6.25-6.8c0-2.97-1.74-6.73-6.16-6.73s-6.33,3.47-6.33,6.8Z"/><path class="cls-39" d="M600.55,109.77l4.04,9.84c.68,1.59,1.23,3.04,1.66,4.49h.13c.47-1.45,1.06-2.89,1.74-4.49l3.99-9.84h3.91l-8.07,17.51h-3.57l-7.82-17.51h3.99Z"/><path class="cls-39" d="M621.21,119.11c.08,4.31,3.31,6.08,7.05,6.08,2.68,0,4.29-.4,5.7-.9l.64,2.28c-1.32.51-3.57,1.09-6.84,1.09-6.33,0-10.11-3.55-10.11-8.83s3.65-9.44,9.65-9.44c6.71,0,8.5,5.03,8.5,8.25,0,.65-.08,1.16-.13,1.48h-14.45ZM632.17,116.83c.04-2.03-.98-5.17-5.18-5.17-3.78,0-5.44,2.97-5.74,5.17h10.92Z"/><path class="cls-39" d="M640.42,115.23c0-2.06-.04-3.83-.17-5.46h3.27l.13,3.44h.17c.93-2.35,3.19-3.83,5.69-3.83.42,0,.72.04,1.06.11v3c-.38-.07-.76-.11-1.28-.11-2.63,0-4.5,1.7-5.01,4.09-.08.43-.17.94-.17,1.48v9.33h-3.7v-12.05Z"/><path class="cls-39" d="M655.97,119.11c.08,4.31,3.31,6.08,7.05,6.08,2.68,0,4.29-.4,5.7-.9l.64,2.28c-1.32.51-3.57,1.09-6.84,1.09-6.33,0-10.11-3.55-10.11-8.83s3.65-9.44,9.65-9.44c6.71,0,8.5,5.03,8.5,8.25,0,.65-.08,1.16-.13,1.48h-14.45ZM666.94,116.83c.04-2.03-.98-5.17-5.18-5.17-3.78,0-5.44,2.97-5.74,5.17h10.92Z"/><path class="cls-39" d="M679.35,104.85c.04,1.09-.89,1.95-2.38,1.95-1.32,0-2.25-.87-2.25-1.95s.98-1.99,2.34-1.99,2.29.87,2.29,1.99ZM675.18,127.28v-17.51h3.74v17.51h-3.74Z"/><path class="cls-39" d="M702.85,109.77c-.08,1.27-.17,2.68-.17,4.81v10.17c0,4.02-.94,6.48-2.93,8-2,1.59-4.89,2.1-7.48,2.1s-5.18-.51-6.84-1.45l.94-2.42c1.36.72,3.48,1.37,6.03,1.37,3.82,0,6.63-1.7,6.63-6.11v-1.95h-.08c-1.15,1.63-3.36,2.93-6.54,2.93-5.1,0-8.75-3.69-8.75-8.54,0-5.93,4.55-9.3,9.26-9.3,3.57,0,5.52,1.59,6.42,3.04h.08l.17-2.64h3.27ZM698.98,116.68c0-.54-.04-1.01-.21-1.45-.68-1.85-2.51-3.36-5.23-3.36-3.57,0-6.12,2.57-6.12,6.62,0,3.44,2.04,6.3,6.08,6.3,2.29,0,4.38-1.23,5.18-3.26.21-.54.3-1.16.3-1.7v-3.15Z"/><path class="cls-39" d="M708.63,114.51c0-1.81-.04-3.29-.17-4.74h3.31l.21,2.89h.08c1.02-1.66,3.4-3.29,6.8-3.29,2.85,0,7.27,1.45,7.27,7.45v10.46h-3.74v-10.09c0-2.82-1.23-5.17-4.76-5.17-2.46,0-4.38,1.48-5.01,3.26-.17.4-.25.94-.25,1.48v10.53h-3.74v-12.77Z"/><path class="cls-39" d="M745.98,119.61l-2.97,7.67h-3.82l9.73-24.38h4.46l9.77,24.38h-3.95l-3.06-7.67h-10.16ZM755.37,117.15l-2.8-7.02c-.64-1.59-1.06-3.04-1.49-4.45h-.08c-.42,1.45-.89,2.93-1.44,4.41l-2.8,7.06h8.63Z"/><path class="cls-39" d="M770.8,117.8h.09c.51-.61,1.23-1.37,1.83-1.99l6.03-6.04h4.5l-7.95,7.2,9.05,10.31h-4.55l-7.1-8.39-1.91,1.81v6.58h-3.7v-25.69h3.7v16.21Z"/><path class="cls-39" d="M789.08,109.77l2.72,8.9c.59,1.95,1.15,3.76,1.53,5.57h.13c.47-1.77,1.15-3.65,1.83-5.54l3.36-8.94h3.14l3.19,8.75c.76,2.1,1.36,3.94,1.83,5.72h.13c.34-1.77.89-3.62,1.57-5.68l2.93-8.79h3.7l-6.63,17.51h-3.4l-3.14-8.36c-.72-1.95-1.32-3.69-1.83-5.75h-.08c-.51,2.1-1.15,3.91-1.87,5.79l-3.31,8.32h-3.4l-6.21-17.51h3.83Z"/><path class="cls-39" d="M820.52,119.11c.08,4.31,3.31,6.08,7.05,6.08,2.68,0,4.29-.4,5.7-.9l.64,2.28c-1.32.51-3.57,1.09-6.84,1.09-6.33,0-10.11-3.55-10.11-8.83s3.65-9.44,9.65-9.44c6.71,0,8.5,5.03,8.5,8.25,0,.65-.08,1.16-.13,1.48h-14.45ZM831.49,116.83c.04-2.03-.98-5.17-5.18-5.17-3.78,0-5.44,2.97-5.74,5.17h10.92Z"/><path class="cls-39" d="M839.22,124.03c1.11.61,3.06,1.27,4.93,1.27,2.72,0,4-1.16,4-2.6,0-1.52-1.06-2.35-3.83-3.22-3.7-1.12-5.44-2.86-5.44-4.96,0-2.82,2.68-5.14,7.1-5.14,2.08,0,3.91.51,5.06,1.08l-.94,2.32c-.81-.43-2.29-1.01-4.21-1.01-2.21,0-3.44,1.09-3.44,2.39,0,1.45,1.23,2.1,3.91,2.97,3.57,1.16,5.4,2.68,5.4,5.28,0,3.08-2.8,5.25-7.69,5.25-2.25,0-4.33-.47-5.78-1.19l.93-2.42Z"/><path class="cls-39" d="M867.95,127.28l-.3-2.21h-.13c-1.15,1.38-3.36,2.6-6.29,2.6-4.16,0-6.29-2.5-6.29-5.03,0-4.23,4.42-6.55,12.37-6.51v-.36c0-1.45-.47-4.05-4.67-4.05-1.91,0-3.91.51-5.35,1.3l-.85-2.1c1.7-.94,4.17-1.56,6.76-1.56,6.29,0,7.82,3.65,7.82,7.16v6.55c0,1.52.08,3,.34,4.2h-3.4ZM867.4,118.35c-4.08-.07-8.71.54-8.71,3.94,0,2.06,1.62,3.04,3.53,3.04,2.68,0,4.38-1.45,4.97-2.93.13-.33.21-.69.21-1.01v-3.04Z"/><path class="cls-39" d="M876.54,124.03c1.11.61,3.06,1.27,4.93,1.27,2.72,0,4-1.16,4-2.6,0-1.52-1.06-2.35-3.83-3.22-3.7-1.12-5.44-2.86-5.44-4.96,0-2.82,2.68-5.14,7.1-5.14,2.08,0,3.91.51,5.06,1.08l-.94,2.32c-.81-.43-2.29-1.01-4.21-1.01-2.21,0-3.44,1.09-3.44,2.39,0,1.45,1.23,2.1,3.91,2.97,3.57,1.16,5.4,2.68,5.4,5.28,0,3.08-2.8,5.25-7.69,5.25-2.25,0-4.33-.47-5.78-1.19l.93-2.42Z"/><path class="cls-39" d="M893.88,114.51c0-1.81-.04-3.29-.17-4.74h3.31l.21,2.89h.08c1.02-1.66,3.4-3.29,6.8-3.29,2.85,0,7.27,1.45,7.27,7.45v10.46h-3.74v-10.09c0-2.82-1.23-5.17-4.76-5.17-2.46,0-4.38,1.48-5.01,3.26-.17.4-.25.94-.25,1.48v10.53h-3.74v-12.77Z"/><path class="cls-39" d="M919.54,119.11c.08,4.31,3.31,6.08,7.05,6.08,2.68,0,4.29-.4,5.69-.9l.64,2.28c-1.32.51-3.57,1.09-6.84,1.09-6.33,0-10.11-3.55-10.11-8.83s3.65-9.44,9.65-9.44c6.71,0,8.5,5.03,8.5,8.25,0,.65-.08,1.16-.13,1.48h-14.45ZM930.51,116.83c.04-2.03-.98-5.17-5.18-5.17-3.78,0-5.44,2.97-5.74,5.17h10.92Z"/><path class="cls-39" d="M967.91,126.49c-1.36.58-4.08,1.16-7.56,1.16-8.07,0-14.15-4.34-14.15-12.34s6.08-12.81,14.96-12.81c3.57,0,5.82.65,6.8,1.09l-.89,2.57c-1.4-.58-3.4-1.01-5.78-1.01-6.71,0-11.18,3.65-11.18,10.06,0,5.97,4.04,9.8,11.01,9.8,2.25,0,4.55-.4,6.03-1.01l.76,2.5Z"/><path class="cls-39" d="M974.03,119.11c.08,4.31,3.31,6.08,7.05,6.08,2.68,0,4.29-.4,5.7-.9l.64,2.28c-1.32.51-3.57,1.09-6.84,1.09-6.33,0-10.11-3.55-10.11-8.83s3.65-9.44,9.65-9.44c6.71,0,8.5,5.03,8.5,8.25,0,.65-.08,1.16-.13,1.48h-14.45ZM984.99,116.83c.04-2.03-.98-5.17-5.18-5.17-3.78,0-5.44,2.97-5.74,5.17h10.92Z"/><path class="cls-39" d="M993.24,114.51c0-1.81-.04-3.29-.17-4.74h3.31l.21,2.89h.08c1.02-1.66,3.4-3.29,6.8-3.29,2.85,0,7.27,1.45,7.27,7.45v10.46h-3.74v-10.09c0-2.82-1.23-5.17-4.76-5.17-2.46,0-4.38,1.48-5.01,3.26-.17.4-.25.94-.25,1.48v10.53h-3.74v-12.77Z"/><path class="cls-39" d="M1021.16,104.74v5.03h5.35v2.42h-5.35v9.44c0,2.17.72,3.4,2.8,3.4.98,0,1.7-.11,2.17-.22l.17,2.39c-.72.25-1.87.43-3.32.43-1.74,0-3.14-.47-4.04-1.34-1.06-.94-1.44-2.5-1.44-4.56v-9.55h-3.19v-2.42h3.19v-4.2l3.65-.83Z"/><path class="cls-39" d="M1030.72,115.23c0-2.06-.04-3.83-.17-5.46h3.27l.13,3.44h.17c.93-2.35,3.19-3.83,5.69-3.83.42,0,.72.04,1.06.11v3c-.38-.07-.76-.11-1.28-.11-2.63,0-4.5,1.7-5.01,4.09-.08.43-.17.94-.17,1.48v9.33h-3.7v-12.05Z"/><path class="cls-39" d="M1055.79,127.28l-.3-2.21h-.13c-1.15,1.38-3.36,2.6-6.29,2.6-4.16,0-6.29-2.5-6.29-5.03,0-4.23,4.42-6.55,12.37-6.51v-.36c0-1.45-.47-4.05-4.67-4.05-1.91,0-3.91.51-5.35,1.3l-.85-2.1c1.7-.94,4.17-1.56,6.76-1.56,6.29,0,7.82,3.65,7.82,7.16v6.55c0,1.52.08,3,.34,4.2h-3.4ZM1055.24,118.35c-4.08-.07-8.71.54-8.71,3.94,0,2.06,1.62,3.04,3.53,3.04,2.68,0,4.38-1.45,4.97-2.93.13-.33.21-.69.21-1.01v-3.04Z"/><path class="cls-39" d="M1064.89,101.6h3.74v25.69h-3.74v-25.69Z"/><path class="cls-39" d="M1084.06,103.22c1.62-.29,4.17-.51,6.76-.51,3.7,0,6.08.54,7.86,1.77,1.49.94,2.38,2.39,2.38,4.31,0,2.35-1.83,4.41-4.84,5.35v.07c2.72.58,5.91,2.5,5.91,6.11,0,2.1-.98,3.69-2.42,4.88-2,1.56-5.23,2.28-9.9,2.28-2.55,0-4.5-.15-5.74-.29v-23.99ZM1087.75,113.21h3.36c3.91,0,6.2-1.74,6.2-4.09,0-2.86-2.55-3.98-6.29-3.98-1.7,0-2.68.11-3.27.22v7.85ZM1087.75,124.89c.72.11,1.79.14,3.1.14,3.82,0,7.35-1.19,7.35-4.74,0-3.33-3.36-4.7-7.39-4.7h-3.06v9.3Z"/><path class="cls-39" d="M1118.35,127.28l-.3-2.21h-.13c-1.15,1.38-3.36,2.6-6.29,2.6-4.16,0-6.29-2.5-6.29-5.03,0-4.23,4.42-6.55,12.37-6.51v-.36c0-1.45-.47-4.05-4.67-4.05-1.91,0-3.91.51-5.35,1.3l-.85-2.1c1.7-.94,4.17-1.56,6.76-1.56,6.29,0,7.82,3.65,7.82,7.16v6.55c0,1.52.08,3,.34,4.2h-3.4ZM1117.8,118.35c-4.08-.07-8.71.54-8.71,3.94,0,2.06,1.62,3.04,3.53,3.04,2.68,0,4.38-1.45,4.97-2.93.13-.33.21-.69.21-1.01v-3.04Z"/><path class="cls-39" d="M1127.45,114.51c0-1.81-.04-3.29-.17-4.74h3.31l.21,2.89h.08c1.02-1.66,3.4-3.29,6.8-3.29,2.85,0,7.27,1.45,7.27,7.45v10.46h-3.74v-10.09c0-2.82-1.23-5.17-4.76-5.17-2.46,0-4.38,1.48-5.01,3.26-.17.4-.25.94-.25,1.48v10.53h-3.74v-12.77Z"/><path class="cls-39" d="M1154.73,117.8h.09c.51-.61,1.23-1.37,1.83-1.99l6.03-6.04h4.5l-7.95,7.2,9.05,10.31h-4.55l-7.1-8.39-1.91,1.81v6.58h-3.7v-25.69h3.7v16.21Z"/><path class="cls-10" d="M298.31,127.28l-.3-2.21h-.13c-1.15,1.38-3.36,2.6-6.29,2.6-4.16,0-6.29-2.5-6.29-5.03,0-4.23,4.42-6.55,12.37-6.51v-.36c0-1.45-.47-4.05-4.67-4.05-1.91,0-3.91.51-5.35,1.3l-.85-2.1c1.7-.94,4.17-1.56,6.76-1.56,6.29,0,7.82,3.65,7.82,7.16v6.55c0,1.52.08,3,.34,4.2h-3.4ZM297.75,118.35c-4.08-.07-8.71.54-8.71,3.94,0,2.06,1.62,3.04,3.53,3.04,2.68,0,4.38-1.45,4.97-2.93.13-.33.21-.69.21-1.01v-3.04Z"/><path class="cls-10" d="M316.03,123.45c1.66.87,4.08,1.59,6.63,1.59,3.78,0,5.99-1.7,5.99-4.16,0-2.28-1.53-3.58-5.4-4.85-4.67-1.41-7.56-3.47-7.56-6.91,0-3.8,3.7-6.62,9.26-6.62,2.93,0,5.06.58,6.33,1.19l-1.02,2.57c-.94-.43-2.85-1.16-5.44-1.16-3.91,0-5.4,1.99-5.4,3.65,0,2.28,1.74,3.4,5.69,4.7,4.84,1.59,7.31,3.58,7.31,7.16,0,3.76-3.27,7.02-10.03,7.02-2.76,0-5.78-.69-7.31-1.56l.93-2.64Z"/><path class="cls-10" d="M354.57,122.51c0,1.81.04,3.4.17,4.78h-3.32l-.21-2.86h-.08c-.98,1.41-3.14,3.26-6.8,3.26-3.23,0-7.1-1.52-7.1-7.67v-10.24h3.74v9.7c0,3.33,1.19,5.57,4.59,5.57,2.51,0,4.25-1.48,4.93-2.89.21-.47.34-1.05.34-1.63v-10.74h3.74v12.73Z"/><path class="cls-10" d="M360.61,127.28c.08-1.19.17-2.97.17-4.52v-21.16h3.7v11h.09c1.32-1.95,3.7-3.22,7.01-3.22,5.1,0,8.71,3.62,8.67,8.94,0,6.26-4.63,9.37-9.22,9.37-2.97,0-5.35-.98-6.88-3.29h-.13l-.17,2.89h-3.23ZM364.48,120.26c0,.4.09.8.17,1.16.72,2.21,2.89,3.73,5.61,3.73,3.91,0,6.25-2.71,6.25-6.73,0-3.51-2.12-6.51-6.12-6.51-2.55,0-4.93,1.48-5.69,3.91-.08.36-.21.8-.21,1.3v3.15Z"/><path class="cls-10" d="M384.45,124.03c1.11.61,3.06,1.27,4.93,1.27,2.72,0,4-1.16,4-2.6,0-1.52-1.06-2.35-3.83-3.22-3.7-1.12-5.44-2.86-5.44-4.96,0-2.82,2.68-5.14,7.1-5.14,2.08,0,3.91.51,5.06,1.08l-.94,2.32c-.81-.43-2.29-1.01-4.21-1.01-2.21,0-3.44,1.09-3.44,2.39,0,1.45,1.23,2.1,3.91,2.97,3.57,1.16,5.4,2.68,5.4,5.28,0,3.08-2.8,5.25-7.69,5.25-2.25,0-4.33-.47-5.78-1.19l.93-2.42Z"/><path class="cls-10" d="M405.96,104.85c.04,1.09-.89,1.95-2.38,1.95-1.32,0-2.25-.87-2.25-1.95s.98-1.99,2.34-1.99,2.29.87,2.29,1.99ZM401.79,127.28v-17.51h3.74v17.51h-3.74Z"/><path class="cls-10" d="M429.5,101.6v21.16c0,1.56.04,3.33.17,4.52h-3.36l-.17-3.04h-.08c-1.15,1.95-3.65,3.44-7.01,3.44-4.97,0-8.8-3.58-8.8-8.9-.04-5.82,4.21-9.41,9.22-9.41,3.15,0,5.27,1.27,6.21,2.68h.08v-10.46h3.74ZM425.76,116.9c0-.4-.04-.94-.17-1.34-.55-2.03-2.59-3.69-5.4-3.69-3.87,0-6.16,2.89-6.16,6.77,0,3.55,2.04,6.48,6.08,6.48,2.51,0,4.8-1.41,5.48-3.8.13-.43.17-.87.17-1.38v-3.04Z"/><path class="cls-10" d="M439.87,104.85c.04,1.09-.89,1.95-2.38,1.95-1.32,0-2.25-.87-2.25-1.95s.98-1.99,2.34-1.99,2.29.87,2.29,1.99ZM435.7,127.28v-17.51h3.74v17.51h-3.74Z"/><path class="cls-10" d="M457.04,127.28l-.3-2.21h-.13c-1.15,1.38-3.36,2.6-6.29,2.6-4.16,0-6.29-2.5-6.29-5.03,0-4.23,4.42-6.55,12.37-6.51v-.36c0-1.45-.47-4.05-4.67-4.05-1.91,0-3.91.51-5.35,1.3l-.85-2.1c1.7-.94,4.17-1.56,6.76-1.56,6.29,0,7.82,3.65,7.82,7.16v6.55c0,1.52.08,3,.34,4.2h-3.4ZM456.49,118.35c-4.08-.07-8.71.54-8.71,3.94,0,2.06,1.62,3.04,3.53,3.04,2.68,0,4.38-1.45,4.97-2.93.13-.33.21-.69.21-1.01v-3.04Z"/><path class="cls-10" d="M466.13,115.23c0-2.06-.04-3.83-.17-5.46h3.27l.13,3.44h.17c.93-2.35,3.19-3.83,5.69-3.83.42,0,.72.04,1.06.11v3c-.38-.07-.76-.11-1.28-.11-2.63,0-4.5,1.7-5.01,4.09-.08.43-.17.94-.17,1.48v9.33h-3.7v-12.05Z"/><path class="cls-10" d="M482.45,109.77l4.5,10.35c.47,1.16.98,2.53,1.32,3.58h.08c.38-1.05.81-2.39,1.32-3.65l4.08-10.27h3.95l-5.61,12.48c-2.68,6.01-4.5,9.08-7.05,10.96-1.83,1.38-3.66,1.92-4.59,2.06l-.93-2.68c.93-.25,2.17-.76,3.27-1.56,1.02-.69,2.29-1.92,3.14-3.55.17-.33.3-.58.3-.76s-.08-.43-.25-.83l-7.61-16.14h4.08Z"/><path class="cls-10" d="M528.73,118.38c0,6.48-5.27,9.3-10.24,9.3-5.57,0-9.86-3.47-9.86-9.01,0-5.86,4.5-9.3,10.2-9.3s9.9,3.65,9.9,9.01ZM512.41,118.56c0,3.83,2.59,6.73,6.25,6.73s6.25-2.86,6.25-6.8c0-2.97-1.74-6.73-6.16-6.73s-6.33,3.47-6.33,6.8Z"/><path class="cls-10" d="M533.83,127.28v-15.09h-2.89v-2.42h2.89v-.83c0-2.46.64-4.7,2.38-6.11,1.4-1.16,3.27-1.63,5.01-1.63,1.32,0,2.46.25,3.19.51l-.51,2.46c-.55-.22-1.32-.4-2.38-.4-3.19,0-4,2.39-4,5.06v.94h4.97v2.42h-4.97v15.09h-3.7Z"/><path class="cls-10" d="M554.49,123.45c1.66.87,4.08,1.59,6.63,1.59,3.78,0,5.99-1.7,5.99-4.16,0-2.28-1.53-3.58-5.4-4.85-4.67-1.41-7.56-3.47-7.56-6.91,0-3.8,3.7-6.62,9.26-6.62,2.93,0,5.06.58,6.33,1.19l-1.02,2.57c-.94-.43-2.85-1.16-5.44-1.16-3.91,0-5.4,1.99-5.4,3.65,0,2.28,1.74,3.4,5.69,4.7,4.84,1.59,7.31,3.58,7.31,7.16,0,3.76-3.27,7.02-10.03,7.02-2.76,0-5.78-.69-7.31-1.56l.93-2.64Z"/><path class="cls-10" d="M594.69,118.38c0,6.48-5.27,9.3-10.24,9.3-5.57,0-9.86-3.47-9.86-9.01,0-5.86,4.5-9.3,10.2-9.3s9.9,3.65,9.9,9.01ZM578.37,118.56c0,3.83,2.59,6.73,6.25,6.73s6.25-2.86,6.25-6.8c0-2.97-1.74-6.73-6.16-6.73s-6.33,3.47-6.33,6.8Z"/><path class="cls-10" d="M600.55,109.77l4.04,9.84c.68,1.59,1.23,3.04,1.66,4.49h.13c.47-1.45,1.06-2.89,1.74-4.49l3.99-9.84h3.91l-8.07,17.51h-3.57l-7.82-17.51h3.99Z"/><path class="cls-10" d="M621.21,119.11c.08,4.31,3.31,6.08,7.05,6.08,2.68,0,4.29-.4,5.7-.9l.64,2.28c-1.32.51-3.57,1.09-6.84,1.09-6.33,0-10.11-3.55-10.11-8.83s3.65-9.44,9.65-9.44c6.71,0,8.5,5.03,8.5,8.25,0,.65-.08,1.16-.13,1.48h-14.45ZM632.17,116.83c.04-2.03-.98-5.17-5.18-5.17-3.78,0-5.44,2.97-5.74,5.17h10.92Z"/><path class="cls-10" d="M640.42,115.23c0-2.06-.04-3.83-.17-5.46h3.27l.13,3.44h.17c.93-2.35,3.19-3.83,5.69-3.83.42,0,.72.04,1.06.11v3c-.38-.07-.76-.11-1.28-.11-2.63,0-4.5,1.7-5.01,4.09-.08.43-.17.94-.17,1.48v9.33h-3.7v-12.05Z"/><path class="cls-10" d="M655.97,119.11c.08,4.31,3.31,6.08,7.05,6.08,2.68,0,4.29-.4,5.7-.9l.64,2.28c-1.32.51-3.57,1.09-6.84,1.09-6.33,0-10.11-3.55-10.11-8.83s3.65-9.44,9.65-9.44c6.71,0,8.5,5.03,8.5,8.25,0,.65-.08,1.16-.13,1.48h-14.45ZM666.94,116.83c.04-2.03-.98-5.17-5.18-5.17-3.78,0-5.44,2.97-5.74,5.17h10.92Z"/><path class="cls-10" d="M679.35,104.85c.04,1.09-.89,1.95-2.38,1.95-1.32,0-2.25-.87-2.25-1.95s.98-1.99,2.34-1.99,2.29.87,2.29,1.99ZM675.18,127.28v-17.51h3.74v17.51h-3.74Z"/><path class="cls-10" d="M702.85,109.77c-.08,1.27-.17,2.68-.17,4.81v10.17c0,4.02-.94,6.48-2.93,8-2,1.59-4.89,2.1-7.48,2.1s-5.18-.51-6.84-1.45l.94-2.42c1.36.72,3.48,1.37,6.03,1.37,3.82,0,6.63-1.7,6.63-6.11v-1.95h-.08c-1.15,1.63-3.36,2.93-6.54,2.93-5.1,0-8.75-3.69-8.75-8.54,0-5.93,4.55-9.3,9.26-9.3,3.57,0,5.52,1.59,6.42,3.04h.08l.17-2.64h3.27ZM698.98,116.68c0-.54-.04-1.01-.21-1.45-.68-1.85-2.51-3.36-5.23-3.36-3.57,0-6.12,2.57-6.12,6.62,0,3.44,2.04,6.3,6.08,6.3,2.29,0,4.38-1.23,5.18-3.26.21-.54.3-1.16.3-1.7v-3.15Z"/><path class="cls-10" d="M708.63,114.51c0-1.81-.04-3.29-.17-4.74h3.31l.21,2.89h.08c1.02-1.66,3.4-3.29,6.8-3.29,2.85,0,7.27,1.45,7.27,7.45v10.46h-3.74v-10.09c0-2.82-1.23-5.17-4.76-5.17-2.46,0-4.38,1.48-5.01,3.26-.17.4-.25.94-.25,1.48v10.53h-3.74v-12.77Z"/><path class="cls-10" d="M745.98,119.61l-2.97,7.67h-3.82l9.73-24.38h4.46l9.77,24.38h-3.95l-3.06-7.67h-10.16ZM755.37,117.15l-2.8-7.02c-.64-1.59-1.06-3.04-1.49-4.45h-.08c-.42,1.45-.89,2.93-1.44,4.41l-2.8,7.06h8.63Z"/><path class="cls-10" d="M770.8,117.8h.09c.51-.61,1.23-1.37,1.83-1.99l6.03-6.04h4.5l-7.95,7.2,9.05,10.31h-4.55l-7.1-8.39-1.91,1.81v6.58h-3.7v-25.69h3.7v16.21Z"/><path class="cls-10" d="M789.08,109.77l2.72,8.9c.59,1.95,1.15,3.76,1.53,5.57h.13c.47-1.77,1.15-3.65,1.83-5.54l3.36-8.94h3.14l3.19,8.75c.76,2.1,1.36,3.94,1.83,5.72h.13c.34-1.77.89-3.62,1.57-5.68l2.93-8.79h3.7l-6.63,17.51h-3.4l-3.14-8.36c-.72-1.95-1.32-3.69-1.83-5.75h-.08c-.51,2.1-1.15,3.91-1.87,5.79l-3.31,8.32h-3.4l-6.21-17.51h3.83Z"/><path class="cls-10" d="M820.52,119.11c.08,4.31,3.31,6.08,7.05,6.08,2.68,0,4.29-.4,5.7-.9l.64,2.28c-1.32.51-3.57,1.09-6.84,1.09-6.33,0-10.11-3.55-10.11-8.83s3.65-9.44,9.65-9.44c6.71,0,8.5,5.03,8.5,8.25,0,.65-.08,1.16-.13,1.48h-14.45ZM831.49,116.83c.04-2.03-.98-5.17-5.18-5.17-3.78,0-5.44,2.97-5.74,5.17h10.92Z"/><path class="cls-10" d="M839.22,124.03c1.11.61,3.06,1.27,4.93,1.27,2.72,0,4-1.16,4-2.6,0-1.52-1.06-2.35-3.83-3.22-3.7-1.12-5.44-2.86-5.44-4.96,0-2.82,2.68-5.14,7.1-5.14,2.08,0,3.91.51,5.06,1.08l-.94,2.32c-.81-.43-2.29-1.01-4.21-1.01-2.21,0-3.44,1.09-3.44,2.39,0,1.45,1.23,2.1,3.91,2.97,3.57,1.16,5.4,2.68,5.4,5.28,0,3.08-2.8,5.25-7.69,5.25-2.25,0-4.33-.47-5.78-1.19l.93-2.42Z"/><path class="cls-10" d="M867.95,127.28l-.3-2.21h-.13c-1.15,1.38-3.36,2.6-6.29,2.6-4.16,0-6.29-2.5-6.29-5.03,0-4.23,4.42-6.55,12.37-6.51v-.36c0-1.45-.47-4.05-4.67-4.05-1.91,0-3.91.51-5.35,1.3l-.85-2.1c1.7-.94,4.17-1.56,6.76-1.56,6.29,0,7.82,3.65,7.82,7.16v6.55c0,1.52.08,3,.34,4.2h-3.4ZM867.4,118.35c-4.08-.07-8.71.54-8.71,3.94,0,2.06,1.62,3.04,3.53,3.04,2.68,0,4.38-1.45,4.97-2.93.13-.33.21-.69.21-1.01v-3.04Z"/><path class="cls-10" d="M876.54,124.03c1.11.61,3.06,1.27,4.93,1.27,2.72,0,4-1.16,4-2.6,0-1.52-1.06-2.35-3.83-3.22-3.7-1.12-5.44-2.86-5.44-4.96,0-2.82,2.68-5.14,7.1-5.14,2.08,0,3.91.51,5.06,1.08l-.94,2.32c-.81-.43-2.29-1.01-4.21-1.01-2.21,0-3.44,1.09-3.44,2.39,0,1.45,1.23,2.1,3.91,2.97,3.57,1.16,5.4,2.68,5.4,5.28,0,3.08-2.8,5.25-7.69,5.25-2.25,0-4.33-.47-5.78-1.19l.93-2.42Z"/><path class="cls-10" d="M893.88,114.51c0-1.81-.04-3.29-.17-4.74h3.31l.21,2.89h.08c1.02-1.66,3.4-3.29,6.8-3.29,2.85,0,7.27,1.45,7.27,7.45v10.46h-3.74v-10.09c0-2.82-1.23-5.17-4.76-5.17-2.46,0-4.38,1.48-5.01,3.26-.17.4-.25.94-.25,1.48v10.53h-3.74v-12.77Z"/><path class="cls-10" d="M919.54,119.11c.08,4.31,3.31,6.08,7.05,6.08,2.68,0,4.29-.4,5.69-.9l.64,2.28c-1.32.51-3.57,1.09-6.84,1.09-6.33,0-10.11-3.55-10.11-8.83s3.65-9.44,9.65-9.44c6.71,0,8.5,5.03,8.5,8.25,0,.65-.08,1.16-.13,1.48h-14.45ZM930.51,116.83c.04-2.03-.98-5.17-5.18-5.17-3.78,0-5.44,2.97-5.74,5.17h10.92Z"/><path class="cls-10" d="M967.91,126.49c-1.36.58-4.08,1.16-7.56,1.16-8.07,0-14.15-4.34-14.15-12.34s6.08-12.81,14.96-12.81c3.57,0,5.82.65,6.8,1.09l-.89,2.57c-1.4-.58-3.4-1.01-5.78-1.01-6.71,0-11.18,3.65-11.18,10.06,0,5.97,4.04,9.8,11.01,9.8,2.25,0,4.55-.4,6.03-1.01l.76,2.5Z"/><path class="cls-10" d="M974.03,119.11c.08,4.31,3.31,6.08,7.05,6.08,2.68,0,4.29-.4,5.7-.9l.64,2.28c-1.32.51-3.57,1.09-6.84,1.09-6.33,0-10.11-3.55-10.11-8.83s3.65-9.44,9.65-9.44c6.71,0,8.5,5.03,8.5,8.25,0,.65-.08,1.16-.13,1.48h-14.45ZM984.99,116.83c.04-2.03-.98-5.17-5.18-5.17-3.78,0-5.44,2.97-5.74,5.17h10.92Z"/><path class="cls-10" d="M993.24,114.51c0-1.81-.04-3.29-.17-4.74h3.31l.21,2.89h.08c1.02-1.66,3.4-3.29,6.8-3.29,2.85,0,7.27,1.45,7.27,7.45v10.46h-3.74v-10.09c0-2.82-1.23-5.17-4.76-5.17-2.46,0-4.38,1.48-5.01,3.26-.17.4-.25.94-.25,1.48v10.53h-3.74v-12.77Z"/><path class="cls-10" d="M1021.16,104.74v5.03h5.35v2.42h-5.35v9.44c0,2.17.72,3.4,2.8,3.4.98,0,1.7-.11,2.17-.22l.17,2.39c-.72.25-1.87.43-3.32.43-1.74,0-3.14-.47-4.04-1.34-1.06-.94-1.44-2.5-1.44-4.56v-9.55h-3.19v-2.42h3.19v-4.2l3.65-.83Z"/><path class="cls-10" d="M1030.72,115.23c0-2.06-.04-3.83-.17-5.46h3.27l.13,3.44h.17c.93-2.35,3.19-3.83,5.69-3.83.42,0,.72.04,1.06.11v3c-.38-.07-.76-.11-1.28-.11-2.63,0-4.5,1.7-5.01,4.09-.08.43-.17.94-.17,1.48v9.33h-3.7v-12.05Z"/><path class="cls-10" d="M1055.79,127.28l-.3-2.21h-.13c-1.15,1.38-3.36,2.6-6.29,2.6-4.16,0-6.29-2.5-6.29-5.03,0-4.23,4.42-6.55,12.37-6.51v-.36c0-1.45-.47-4.05-4.67-4.05-1.91,0-3.91.51-5.35,1.3l-.85-2.1c1.7-.94,4.17-1.56,6.76-1.56,6.29,0,7.82,3.65,7.82,7.16v6.55c0,1.52.08,3,.34,4.2h-3.4ZM1055.24,118.35c-4.08-.07-8.71.54-8.71,3.94,0,2.06,1.62,3.04,3.53,3.04,2.68,0,4.38-1.45,4.97-2.93.13-.33.21-.69.21-1.01v-3.04Z"/><path class="cls-10" d="M1064.89,101.6h3.74v25.69h-3.74v-25.69Z"/><path class="cls-10" d="M1084.06,103.22c1.62-.29,4.17-.51,6.76-.51,3.7,0,6.08.54,7.86,1.77,1.49.94,2.38,2.39,2.38,4.31,0,2.35-1.83,4.41-4.84,5.35v.07c2.72.58,5.91,2.5,5.91,6.11,0,2.1-.98,3.69-2.42,4.88-2,1.56-5.23,2.28-9.9,2.28-2.55,0-4.5-.15-5.74-.29v-23.99ZM1087.75,113.21h3.36c3.91,0,6.2-1.74,6.2-4.09,0-2.86-2.55-3.98-6.29-3.98-1.7,0-2.68.11-3.27.22v7.85ZM1087.75,124.89c.72.11,1.79.14,3.1.14,3.82,0,7.35-1.19,7.35-4.74,0-3.33-3.36-4.7-7.39-4.7h-3.06v9.3Z"/><path class="cls-10" d="M1118.35,127.28l-.3-2.21h-.13c-1.15,1.38-3.36,2.6-6.29,2.6-4.16,0-6.29-2.5-6.29-5.03,0-4.23,4.42-6.55,12.37-6.51v-.36c0-1.45-.47-4.05-4.67-4.05-1.91,0-3.91.51-5.35,1.3l-.85-2.1c1.7-.94,4.17-1.56,6.76-1.56,6.29,0,7.82,3.65,7.82,7.16v6.55c0,1.52.08,3,.34,4.2h-3.4ZM1117.8,118.35c-4.08-.07-8.71.54-8.71,3.94,0,2.06,1.62,3.04,3.53,3.04,2.68,0,4.38-1.45,4.97-2.93.13-.33.21-.69.21-1.01v-3.04Z"/><path class="cls-10" d="M1127.45,114.51c0-1.81-.04-3.29-.17-4.74h3.31l.21,2.89h.08c1.02-1.66,3.4-3.29,6.8-3.29,2.85,0,7.27,1.45,7.27,7.45v10.46h-3.74v-10.09c0-2.82-1.23-5.17-4.76-5.17-2.46,0-4.38,1.48-5.01,3.26-.17.4-.25.94-.25,1.48v10.53h-3.74v-12.77Z"/><path class="cls-10" d="M1154.73,117.8h.09c.51-.61,1.23-1.37,1.83-1.99l6.03-6.04h4.5l-7.95,7.2,9.05,10.31h-4.55l-7.1-8.39-1.91,1.81v6.58h-3.7v-25.69h3.7v16.21Z"/></svg>