<?xml version="1.0" encoding="UTF-8"?>
<svg id="Layer_10" xmlns="http://www.w3.org/2000/svg" xmlns:xlink="http://www.w3.org/1999/xlink" viewBox="0 0 1000 697.23"><defs><style>.cls-1{fill:none;}.cls-1,.cls-2,.cls-3,.cls-4,.cls-5,.cls-6,.cls-7,.cls-8,.cls-9,.cls-10,.cls-11,.cls-12,.cls-13,.cls-14,.cls-15,.cls-16,.cls-17,.cls-18,.cls-19,.cls-20,.cls-21,.cls-22,.cls-23,.cls-24,.cls-25,.cls-26,.cls-27,.cls-28,.cls-29,.cls-30,.cls-31,.cls-32,.cls-33,.cls-34,.cls-35,.cls-36,.cls-37,.cls-38,.cls-39{stroke-width:0px;}.cls-2{fill:url(#linear-gradient);}.cls-3{fill:url(#linear-gradient-33);}.cls-4{fill:url(#linear-gradient-29);}.cls-5{fill:url(#linear-gradient-32);}.cls-6{fill:url(#linear-gradient-30);}.cls-7{fill:url(#linear-gradient-31);}.cls-8{fill:url(#linear-gradient-34);}.cls-9{fill:url(#linear-gradient-35);}.cls-10{fill:url(#linear-gradient-28);}.cls-11{fill:url(#linear-gradient-25);}.cls-12{fill:url(#linear-gradient-11);}.cls-13{fill:url(#linear-gradient-12);}.cls-14{fill:url(#linear-gradient-13);}.cls-15{fill:url(#linear-gradient-10);}.cls-16{fill:url(#linear-gradient-17);}.cls-17{fill:url(#linear-gradient-16);}.cls-18{fill:url(#linear-gradient-19);}.cls-19{fill:url(#linear-gradient-15);}.cls-20{fill:url(#linear-gradient-23);}.cls-21{fill:url(#linear-gradient-21);}.cls-22{fill:url(#linear-gradient-18);}.cls-23{fill:url(#linear-gradient-14);}.cls-24{fill:url(#linear-gradient-22);}.cls-25{fill:url(#linear-gradient-20);}.cls-26{fill:url(#linear-gradient-27);}.cls-27{fill:url(#linear-gradient-24);}.cls-28{fill:url(#linear-gradient-26);}.cls-29{fill:url(#linear-gradient-4);}.cls-30{fill:url(#linear-gradient-2);}.cls-31{fill:url(#linear-gradient-3);}.cls-32{fill:url(#linear-gradient-8);}.cls-33{fill:url(#linear-gradient-9);}.cls-34{fill:url(#linear-gradient-7);}.cls-35{fill:url(#linear-gradient-5);}.cls-36{fill:url(#linear-gradient-6);}.cls-37{fill:#606060;}.cls-38{fill:#1e98c8;}.cls-39{fill:#00527e;}</style><linearGradient id="linear-gradient" x1="119.45" y1="527.79" x2="555.25" y2="527.79" gradientUnits="userSpaceOnUse"><stop offset="0" stop-color="#cf8d00"/><stop offset=".12" stop-color="#f6ed5e"/><stop offset=".13" stop-color="#f5eb5c"/><stop offset=".16" stop-color="#ebd547"/><stop offset=".19" stop-color="#e5c73b"/><stop offset=".22" stop-color="#e3c337"/><stop offset=".34" stop-color="#ffe753"/><stop offset=".39" stop-color="#fce24e"/><stop offset=".45" stop-color="#f6d43f"/><stop offset=".51" stop-color="#ecbe28"/><stop offset=".53" stop-color="#e9b821"/><stop offset=".69" stop-color="#efd746"/><stop offset=".89" stop-color="#d39b0e"/><stop offset="1" stop-color="#d29408"/></linearGradient><linearGradient id="linear-gradient-2" x1="199.03" y1="166.12" x2="405.98" y2="166.12" xlink:href="#linear-gradient"/><linearGradient id="linear-gradient-3" x1="597.43" y1="525.14" x2="803.97" y2="525.14" xlink:href="#linear-gradient"/><linearGradient id="linear-gradient-4" x1="444.78" y1="166.05" x2="882.87" y2="166.05" xlink:href="#linear-gradient"/><linearGradient id="linear-gradient-5" x1="6.97" y1="342.93" x2="992.55" y2="342.93" gradientUnits="userSpaceOnUse"><stop offset=".04" stop-color="#e8d13c"/><stop offset=".07" stop-color="#dec53c"/><stop offset=".12" stop-color="#c4a73d"/><stop offset=".18" stop-color="#9f7c3f"/><stop offset=".5" stop-color="#cfb13d"/><stop offset=".58" stop-color="#b7932e"/><stop offset=".66" stop-color="#a57d23"/><stop offset=".73" stop-color="#9a6f1c"/><stop offset=".8" stop-color="#976b1a"/><stop offset=".83" stop-color="#9b701b"/><stop offset=".88" stop-color="#a88121"/><stop offset=".93" stop-color="#be9c2a"/><stop offset=".98" stop-color="#dbc136"/><stop offset="1" stop-color="#e8d13c"/></linearGradient><linearGradient id="linear-gradient-6" x1="368.33" y1="339.41" x2="490.15" y2="339.41" gradientUnits="userSpaceOnUse"><stop offset="0" stop-color="#3d2400"/><stop offset=".17" stop-color="#d6b13d"/><stop offset=".23" stop-color="#e2bc39"/><stop offset=".3" stop-color="#e9c237"/><stop offset=".45" stop-color="#7e560c"/><stop offset=".61" stop-color="#714907"/><stop offset=".68" stop-color="#825609"/><stop offset=".78" stop-color="#97670c"/><stop offset=".84" stop-color="#9f6d0d"/><stop offset=".87" stop-color="#96660b"/><stop offset=".91" stop-color="#7f5408"/><stop offset=".95" stop-color="#5b3704"/><stop offset=".99" stop-color="#3b1e00"/></linearGradient><linearGradient id="linear-gradient-7" x1="512.17" y1="422.57" x2="585.59" y2="422.57" xlink:href="#linear-gradient-6"/><linearGradient id="linear-gradient-8" x1="512.01" y1="259.1" x2="566.05" y2="259.1" xlink:href="#linear-gradient-6"/><linearGradient id="linear-gradient-9" x1="569.89" y1="320.17" x2="626.79" y2="320.17" xlink:href="#linear-gradient"/><linearGradient id="linear-gradient-10" x1="506.09" y1="356.75" x2="570.83" y2="356.75" xlink:href="#linear-gradient"/><linearGradient id="linear-gradient-11" x1="592.03" y1="395.7" x2="614.9" y2="395.7" xlink:href="#linear-gradient"/><linearGradient id="linear-gradient-12" x1="580.99" y1="268.28" x2="599.91" y2="268.28" xlink:href="#linear-gradient-6"/><linearGradient id="linear-gradient-13" x1="505.57" y1="403.66" x2="521.89" y2="403.66" xlink:href="#linear-gradient-6"/><linearGradient id="linear-gradient-14" x1="512.71" y1="320.04" x2="528.53" y2="320.04" xlink:href="#linear-gradient-6"/><linearGradient id="linear-gradient-15" x1="562.99" y1="234.86" x2="579.1" y2="234.86" xlink:href="#linear-gradient"/><linearGradient id="linear-gradient-16" x1="505.92" y1="288.02" x2="521.53" y2="288.02" xlink:href="#linear-gradient"/><linearGradient id="linear-gradient-17" x1="535.57" y1="427.84" x2="551" y2="427.84" xlink:href="#linear-gradient"/><linearGradient id="linear-gradient-18" x1="546.64" y1="359.22" x2="562.02" y2="359.22" xlink:href="#linear-gradient"/><linearGradient id="linear-gradient-19" x1="546.6" y1="251.06" x2="559.1" y2="251.06" xlink:href="#linear-gradient-6"/><linearGradient id="linear-gradient-20" x1="509.15" y1="341.6" x2="517.18" y2="341.6" xlink:href="#linear-gradient-6"/><linearGradient id="linear-gradient-21" x1="592.84" y1="367.49" x2="600.76" y2="367.49" xlink:href="#linear-gradient-6"/><linearGradient id="linear-gradient-22" x1="568.92" y1="256.06" x2="576.87" y2="256.06" xlink:href="#linear-gradient-6"/><linearGradient id="linear-gradient-23" x1="573.39" y1="356.36" x2="581.65" y2="356.36" xlink:href="#linear-gradient-6"/><linearGradient id="linear-gradient-24" x1="580.04" y1="419.18" x2="588.11" y2="419.18" xlink:href="#linear-gradient-6"/><linearGradient id="linear-gradient-25" x1="528.01" y1="409.94" x2="535.97" y2="409.94" xlink:href="#linear-gradient-6"/><linearGradient id="linear-gradient-26" x1="575.71" y1="400.47" x2="583.37" y2="400.47" xlink:href="#linear-gradient"/><linearGradient id="linear-gradient-27" x1="514.01" y1="429.27" x2="521.68" y2="429.27" xlink:href="#linear-gradient"/><linearGradient id="linear-gradient-28" x1="576.91" y1="340.02" x2="584.55" y2="340.02" xlink:href="#linear-gradient"/><linearGradient id="linear-gradient-29" x1="506.19" y1="245.68" x2="513.76" y2="245.68" xlink:href="#linear-gradient"/><linearGradient id="linear-gradient-30" x1="541.28" y1="325.5" x2="548.83" y2="325.5" xlink:href="#linear-gradient"/><linearGradient id="linear-gradient-31" x1="526.17" y1="299.94" x2="533.76" y2="299.94" xlink:href="#linear-gradient"/><linearGradient id="linear-gradient-32" x1="575.38" y1="287.53" x2="582.66" y2="287.53" xlink:href="#linear-gradient"/><linearGradient id="linear-gradient-33" x1="534.37" y1="390.06" x2="541.86" y2="390.06" xlink:href="#linear-gradient"/><linearGradient id="linear-gradient-34" x1="550.7" y1="379.82" x2="558.22" y2="379.82" xlink:href="#linear-gradient-6"/><linearGradient id="linear-gradient-35" x1="550.06" y1="379" x2="556.22" y2="379" xlink:href="#linear-gradient-6"/></defs><path class="cls-1" d="M500.02,81.24c11.81,0,21.38-9.57,21.38-21.38s-9.57-21.38-21.38-21.38-21.38,9.57-21.38,21.38,9.57,21.38,21.38,21.38Z"/><circle class="cls-1" cx="66.89" cy="300.76" r="24.62"/><path class="cls-1" d="M500.02,613.01c-11.68,0-21.13,9.37-21.34,21v.77c.21,11.63,9.67,21,21.34,21s21.38-9.57,21.38-21.38-9.57-21.38-21.38-21.38Z"/><circle class="cls-1" cx="932.64" cy="385.1" r="24.62"/><path class="cls-1" d="M499.76,181.59c-88.94.2-160.99,72.35-160.99,161.34s72.04,161.15,160.99,161.34c88.94-.2,160.99-72.35,160.99-161.34s-72.04-161.15-160.99-161.34Z"/><path class="cls-2" d="M500.02,579.16c-21.22,0-39.62,11.98-48.87,29.54-117.13-22.01-207.15-120.76-215.78-242.1h-2.09c-.01-.13-.02-.32-.03-.44-32.78-.52-90.36.06-90.36.06,0,0-20.18,23.32-23.43,31.97,0,0,27.9,2.94,76.52,4.65,23.02,127.49,124.04,227.75,251.9,249.67,7.5,21.6,27.98,37.14,52.14,37.14,30.51,0,55.24-24.73,55.24-55.24s-24.73-55.24-55.24-55.24ZM500.02,655.78c-11.68,0-21.13-9.37-21.34-21v-.77c.21-11.63,9.67-21,21.34-21s21.38,9.57,21.38,21.38-9.57,21.38-21.38,21.38Z"/><path class="cls-30" d="M405.98,98.93c-2.29-15.82-5.58-33.12-6.6-39.09-.28-1.65-.53-3.18-.78-4.73-99.27,34.6-175.46,118.31-199.57,222.02h45.03c22.47-82.05,83.24-148.25,161.92-178.2Z"/><path class="cls-31" d="M597.43,595.11v46.43c104.6-34.47,184.53-123.15,206.55-232.82h-44.7c-20.14,85.4-81.46,154.88-161.85,186.38Z"/><path class="cls-38" d="M809.86,358.6h-43.71c0,.09-.01.17-.02.26h43.71c0-.09.01-.18.01-.26Z"/><path class="cls-29" d="M500.02,115.09c21.04,0,39.33-11.77,48.66-29.09,116.79,21.38,206.86,119.01,216.76,239.42,0,1.29.04,2.06.04,2.06l87.63-.84,29.77-36.79s-28.86-3.05-79.11-4.74c-25.46-124.41-125.51-221.59-251.42-242.82-7.35-21.88-27.98-37.67-52.34-37.67-30.51,0-55.24,24.73-55.24,55.24s24.73,55.24,55.24,55.24ZM500.02,38.47c11.81,0,21.38,9.57,21.38,21.38s-9.57,21.38-21.38,21.38-21.38-9.57-21.38-21.38,9.57-21.38,21.38-21.38Z"/><path class="cls-35" d="M932.64,325.18c-23.67,0-44.07,13.76-53.8,33.68h-179.98c.42-5.26.69-10.56.69-15.93,0-110.13-89.28-199.42-199.42-199.42-.14,0-.27,0-.41,0-.11,0-.22,0-.32,0-.93,0-1.85.06-2.78.07-1.77.03-3.55.06-5.31.13-2.32.09-4.63.24-6.93.42-.23.02-.46.03-.69.05-80.17,6.25-147.01,59.88-172.55,132.94H121.95c-9.17-21.34-30.36-36.29-55.06-36.29-33.09,0-59.92,26.83-59.92,59.92s26.83,59.92,59.92,59.92c23.67,0,44.07-13.76,53.8-33.68h179.98c-.42,5.26-.69,10.56-.69,15.93,0,110.13,89.28,199.42,199.42,199.42.14,0,.27,0,.41,0,.11,0,.22,0,.32,0,.93,0,1.85-.06,2.78-.07,1.77-.03,3.55-.06,5.31-.13,2.32-.09,4.63-.24,6.93-.42.23-.02.46-.03.69-.05,80.17-6.25,147.01-59.88,172.55-132.94h189.2c9.17,21.34,30.36,36.29,55.06,36.29,33.09,0,59.92-26.83,59.92-59.92s-26.83-59.92-59.92-59.92ZM66.89,325.39c-13.6,0-24.62-11.02-24.62-24.62s11.02-24.62,24.62-24.62,24.62,11.02,24.62,24.62-11.02,24.62-24.62,24.62ZM499.76,504.28c-88.94-.2-160.99-72.35-160.99-161.34s72.04-161.15,160.99-161.34c88.94.2,160.99,72.35,160.99,161.34s-72.04,161.15-160.99,161.34ZM932.64,409.72c-13.6,0-24.62-11.02-24.62-24.62s11.02-24.62,24.62-24.62,24.62,11.02,24.62,24.62-11.02,24.62-24.62,24.62Z"/><path class="cls-36" d="M490.15,447.75c-.29-25.55-.09-51.11-.11-76.66,0-1.14.3-2.36-.6-3.8-1.03,1.62-2.53,2.26-3.78,3.24-7,5.52-14.87,6.93-23.47,5.05-1.37-.3-1.61-1.09-1.27-2.22.31-1.06.74-2.08,1.12-3.12.49-1.36,1.3-1.75,2.81-1.39,12.03,2.86,25.14-7.22,25.16-19.63.09-40.62.05-81.24-.02-121.86-.01-6.69-2.89-12.47-7.77-16.79-13.18-11.66-33.8-6.4-38.56,10.72-.09.31-.44,2.02-1.68,2.54-.8.34-1.69.07-2.35-.23-.23-.09-.46-.19-.69-.28-.75-.17-1.65-.31-2.68-.36-1.09-.05-2.05.01-2.84.12-.29.05-.58.09-.87.14-.66.12-1.9.36-3.41.82-15.98,4.89-21.59,21.97-21.14,24.29.14.72.56,1.19.56,1.19.57.26,1.43.58,2.52.71.3.04.52.05.59.05,3.04.17,7.34,1.79,7.34,1.79,9.59,3.62,16.75,4.11,19.81,7.06.22.21,1.23,1.25,2.02.98.44-.15.69-.8,1-1.92.9-3.31,2.46-6.39,4.55-9.1.93-1.21.91-1.84.1-3.1-1.39-2.17-2.92-4.38-2.87-7.16-.31-1-.59-1.98.67-2.57,1.49-.12,2.58-.22,3.46-.31.58-.06,1.36-.14,1.77.32.23.26.26.58.27.69.16,1.68,1.93,5.29,3.9,7.17.69.65,1.5,1.22,1.5,1.22.4.28.86.65,1.55.93.61.25,1.34.49,2.2.68.93.21,1.77.29,2.47.32.61,0,1.22,0,1.83,0,1.21-.23,2.43-.47,3.64-.7,1.07-.68,1.78.09,2.55.63,1.66,2.38,2.47,3.55,2.19,4.33-.33.94-1.64,1.24-3.95,1.85-1.3.34-2.41.5-3.18.59h.02c-.68.12-1.7.27-2.94.22-1.71-.06-3-.45-4.44-.89-.8-.24-1.89-.62-3.15-1.18-.83.35-2.68,1.26-4.13,3.29-1.17,1.64-1.54,3.26-1.68,4.13-.16.51-.32,1.1-.43,1.76-.1.62-.15,1.18-.17,1.68-.14,2.53.07,4.65.31,6.2.28,1.82.63,3.94,1.84,6.41.54,1.11,1.2,2.17,1.98,3.18.23.3.46.6.69.9.35.44.69.87,1.03,1.29.38.37.76.74,1.16,1.12.36.34.72.67,1.08.99.4.29,1.02.71,1.81,1.19,1.89,1.14,2.35,1.09,2.66,1.7.53,1.07-.18,2.59-.68,3.65-.2.42-.39.75-.53.97-.6,1.09-1.46,1.15-2.47.63-1.27-.48-2.83-1.2-4.45-2.33-2.71-1.89-4.42-4.07-5.41-5.58-2.92-3.18-4.36-7.09-5.35-11.18-.14-.58-.49-1.35-1.04-2.37-1.72-3.18-4.21-5.15-6.04-6.32-.44-.29-.9-.58-1.37-.87-1-.61-1.98-1.16-2.92-1.64-1.13-.44-2.25-.88-3.38-1.32-.61-.21-1.22-.41-1.84-.62-1.85-.58-4.09-1.13-6.66-1.46-2.01-.26-3.85-.34-5.46-.32-1.03,0-2.53.06-4.31.38,0,0-.93.19-1.92.43-2.2.55-6.9,1.75-11.54,4.74-7.29,4.7-10.7,11.41-12.22,14.38-.4.79-.79,1.63-1.16,2.53-.64,1.57-1.88,4.94-2.28,9.11-.14,1.45-.13,2.6-.13,3,0,0,.02,1.49.19,2.97.51,4.24,4,14.47,6.13,16.94.15.17.67.75.53,1.32-.08.32-.44.57-1.14.95-2.4,1.31-7.28,5.17-9.34,7.36-.42.45-1.99,2.15-3.5,4.74-.95,1.64-1.59,3.12-2.02,4.28-1.22,3.86-1.48,6.95-1.51,8.85-.04,2.45.26,4.06.39,4.65.33,1.58.78,2.74,1.16,3.68,0,0,2.33,5.7,8.05,13.12.32.41.98,1.25,1.89,1.27.96.02,1.69-.88,1.96-1.19,1.04-1.22,3.08-3,7.41-5.65,1.4-.95,2.82-1.93,4.25-2.96,1.31-.93,2.57-1.86,3.81-2.79l.24-.14h.27c.19-.01.35-.02.51-.02,1.86.09,3.86,4.78,3.65,5.44-.12.38-.5.68-1.4.84-.12.02-.21.02-.23.02-.5.02-1.68.55-4.26,2.26-2.42.96-8.65,6.26-9.2,7.86-.87,1.08-1.8,2.37-2.69,3.86-1.32,2.22-2.2,4.31-2.81,6.07-.63,1.33-1.41,3.31-1.89,5.81-.08.44-.27,1.46-.43,3.62-.14,1.9-.26,4.51-.15,7.68.17,1.05,1.22,7.31,3.71,11.16.45.7,1.75,2.63,3.62,4.73.42.47.83.93,1.25,1.4,1.06,1.09,2.12,2.19,3.19,3.28.9.86,1.93,1.76,3.08,2.66,1.17.92,2.3,1.71,3.36,2.39,1.12,1.38,2.94,1.97,4.59,1.51,1.87-.53,3.18-2.32,3.15-4.35.5-1.67,1.85-5.38,5.37-8.63,3.17-2.92,6.52-4.03,8.21-4.46.45-.15.93-.29,1.43-.42,1.03-.27,2-.46,2.9-.6,1.7-.28,3.45-.62,5.25-1.03.54-.12,1.08-.25,1.6-.38.14-.88.26-1.8.37-2.76.12-1.12.21-2.2.26-3.23,1.15-4.01,2.06-6.99,2.39-7.85.09-.25.28-.69.64-.78.17-.04.37.02.63.2,1.63,1.15,3.95,1.35,4.88,3.48-1.52,1.35-1.61,3.19-1.71,5.03-.05.37-.1.73-.15,1.1-.51,2.4-.07,4.83-.27,7.24-.26,3.21.81,5.94,3.34,8.02,3.36,5.16,7.96,8.41,14.14,9.24,1.22.34,2.43.36,3.64-.01.36-.04.73-.08,1.09-.12.23-.15.47-.29.71-.41.96-.05,1.98-.07,3.05-.06,1,.01,1.96.05,2.87.11.1.21.27.32.51.34q4.82,1,3.26,4.97c-1,.96-2.24,1.3-3.58,1.48-1.8.24-3.65-.27-5.43.3-5.6.79-9.14,4.54-10.1,9.5-.64,3.3-1.81,3.04-3.97,2.74-2.09-.68-2.35-2.44-2.5-4.27-.05-.83.04-1.53.14-2.03.18-.94.49-1.61.56-1.77.29-.63.63-1.12.9-1.46.38-.59.76-1.19,1.15-1.79.43-.66.86-1.31,1.29-1.95-7.78-3.11-13.32-8.34-16.28-16.1-.49-1.28-1.18-1.8-2.64-1.76-7.14.17-11.89,3.3-11.89,3.3-1.59.98-4.28,2.68-6.07,5.48-1.36,2.12-2.11,4.7-2.11,4.7-.17.57-.28,1.06-.35,1.41-.05.33-.1.67-.16,1-.17,1.27-.33,2.54-.5,3.82l.02,2.62c-.03.88,0,1.91.17,3.05.09.58.2,1.12.32,1.61l1.96,5.39c2.57,5.43,6.75,9.43,11.53,12.88.2.18.4.36.59.54.21.12.51.29.88.48,1.66.87,3.27,1.52,4.34,1.86,1.13.36,3.05.47,6.89.7,4.37.26,4.88.06,5.27-.18.34-.21,1.27-.82,2.03-.53.12.05.29.14.45.38.15.24.39.65.65,1.17,1,1.99,1.04,3.14,1.97,5.3.17.39.44.98.82,1.69.14.24.3.47.48.69.62.74,1.43,1.94,2.61,3.22.44.48,1.01,1.07,1.71,1.71.5.49,1.27,1.19,2.32,1.86,0,0,1.62,1.03,3.77,1.68,2.51.75,8.27,1.43,15.88,1.36.55-.09,1.27-.24,2.09-.49.18-.06.71-.22,1.42-.52.78-.32,1.86-.83,3.1-1.61,1.9-1.45,4.85-4.03,7.21-8.01,3.89-6.55,4.04-13.08,4-16.11ZM450.56,313.66c-3.43-.84-6.35-.64-8.11-.38-3.2.47-5.63,1.59-7.11,2.41-.79.44-1.67,1-2.59,1.72-1.14.89-2.03,1.8-2.72,2.59-.34.51-.74,1.27-.85,2.23-.19,1.68.65,2.73,1.3,4.27.98,2.31.96,4.31.93,7.33-.03,2.26-.34,3.87-.68,5.64-.31,1.61-.3,3.19-1.16,5.03-.8,1.72-1.44,1.97-1.61,2.02-.4.13-.71.07-3.71-1.3-1.35-.61-1.81-.84-2.1-1.39-.38-.7-.24-1.45-.14-1.92.62-3,1.64-4.56,2.09-6.49.4-1.68.21-2.96-.09-5.02-.42-2.87-1.39-5.11-2.15-6.52-.69-1.3-1.42-2.31-1.99-3.03-2.07-2.71-4.23-4.25-5.67-5.09-1.31-.77-3.45-2.03-6.5-2.57-2.6-.46-4.25-.06-5.03-1.23-.19-.28-.22-1.22-.3-3.1-.08-2.09,0-2.64.4-2.97.24-.2.53-.25,1.57-.23,1.99.06,3.05.27,3.05.27,2.9.58,4.34.87,4.67.97,1.71.52,4.3,1.3,6.77,3.12,1.37,1.01,2.05,1.51,2.75,2.3.38.42.77.94,1.52,1.45.64.44,1.26.69,1.69.83.01,0,1.27-.91,1.28-.92.02-.01,1.47-1.06,1.49-1.07.63-.55,1.61-1.35,2.89-2.19,1.4-.92,10.92-6.94,22.54-3.86,5.69,1.51,9.15,4.48,11.91,6.85,1.09.93,5.19,4.45,4.35,6.29-.15.33-.89.74-2.36,1.57-2.39,1.34-2.89,1.29-3.15,1.23-.71-.15-.97-.66-2.1-1.94-.81-.92-1.74-1.74-2.59-2.62-2.79-2.89-7.55-4.06-8.45-4.28Z"/><path class="cls-34" d="M528.53,475.02c-9.37-.12-16.85-8.54-16.33-18.37.48-8.97,9.06-16.39,18.04-15.69,5.42.42,9.73,2.84,12.87,7.15.99,1.35,1.7,1.32,2.94.8,4-1.7,8.02-3.37,12.04-5.02,1.14-.47,1.8-1.04,1.61-2.49-.54-4.17,1.01-7.63,4.24-10.17,1.28-1.01,1.23-1.84.76-3.07-2.04-5.29-4.1-10.57-6.03-15.9-.47-1.29-1.33-1.21-2.34-1.41-4.03-.81-6.59-3.41-7.04-6.98-.43-3.41,1.16-6.37,4.22-8.09,1.43-.8,2.99-.97,4.42-.62,2.37.59,3.71-.48,5.01-2.18,1.48-1.94,3.06-3.81,4.7-5.6,2.29-2.5,4.13-4.77,2.36-8.68-1.15-2.53,1.62-7.03,4.43-7.84,3.88-1.11,6.15-1.38,9.18,1.88,2.13,2.29,2.62,6.42,1.13,9.03-1.68,2.92-5.46,4.91-8.46,3.97-1.53-.48-2.4-.41-3.38.8-2.68,3.32-5.39,6.6-8.16,9.84-.88,1.02-1.19,1.81-.58,3.21,1.36,3.13,1.06,6.22-1.49,8.69-1.13,1.09-.98,1.98-.5,3.22,1.99,5.1,3.97,10.2,5.81,15.35.55,1.53,1.29,1.88,2.87,1.88,6.57,0,11.45,4.7,11.74,11.1.28,6.02-4.37,11.41-10.61,11.93-3.71.3-7.05-1.02-9.48-3.93-.95-1.14-1.65-1.45-3.03-.83-3.96,1.79-7.95,3.51-11.97,5.15-1.31.53-1.85,1-1.56,2.64,1.96,10.95-6.23,20.4-17.42,20.25Z"/><path class="cls-32" d="M533.51,252.01c1.26.56,2.23.88,3.51,1.97.54.47.96.96,1.02,1.03.44.52.75,1.02.96,1.41.34.62.68,1.23,1.02,1.85.2.61.41,1.23.61,1.84,0,1.49.38,3.09-.05,4.44-.44,1.39-.31,2.16.02,2.79.24.44.58.68,1.2,1.12.53.37,1.03.61,1.39.75.83.44,1.66.89,2.5,1.33.44.22,1.17.58,2.07,1.03,2.63,1.33,3.16,1.71,4.05,1.76.95.06,2-.16,3.27-.81,4.45-2.29,9.63.74,10.72,5.26,1.15,4.76-1.66,8.72-7.02,9.72-.95.18-1.3.48-1.57,1.41-.85,2.89-1.85,5.75-2.84,8.6-.43,1.24,0,2.03.85,2.94,3.12,3.36,3.43,7.15.99,10.34-2.59,3.39-6.42,4.07-10.5,1.86-.41-.25-.91-.61-1.42-1.12-.49-.49-.84-.97-1.09-1.37-3.28-4.95.43-11.34,5.05-11.68,1.83-.14,2.63-1.15,3.03-2.78.32-1.27.72-2.53,1.19-3.76.74-1.95,1.42-3.83.84-5.6-.29-.89-.87-.82-1.85-2.49-.49-.83-.73-1.44-.89-1.95-.04-.14-.23-.77-.34-1.69-.16-1.38.17-1.78-.06-2.34-.46-1.13-1.58-1.79-2.83-2.47-2.39-1.31-4.82-2.59-7.08-4.1-1.45-.97-2.28-.78-3.61.31-3.79,3.12-8.15,3.57-12.54,1.46-4.43-2.13-6.64-5.9-6.38-10.8.26-4.85,2.7-8.47,7.37-10.11,1.91-.67,2.46-1.59,2.33-3.48-.16-2.53-.18-5.09,0-7.62.14-2.02-.63-2.71-2.54-3.26-9.25-2.66-13.95-10.34-12.66-20.28.77-5.92,6.89-11.57,13.45-12.98,6.21-1.33,14,1.89,17.55,7.21,4.34,6.5,3.89,12.99.05,19.5-.26.67-.7,1.55-1.45,2.39-.26.29-.53.54-.78.76-.53.42-1.06.83-1.59,1.25-1.17.56-2.35,1.11-3.52,1.67q-4.94,1.28-4.93,6.31c0,2,.08,4,.12,6.01.74.84,1.29,1.88,2.38,2.37Z"/><path class="cls-33" d="M625.35,346.2c-.66,1.52-2.89,6.12-8.02,8.61-6.65,3.22-15.1,1.39-19.7-3.86-4.47-5.09-6.55-12.97-2.07-19.59.79-1.17,1.02-2.26-.22-3.5-3-2.99-6.35-5.61-9.13-8.84-.94-1.1-2.18-.74-3.57-.11-3.61,1.64-8.08.35-10.75-2.75-2.08-2.42-2.62-6.65-1.21-9.46,1.87-3.7,5.83-5.93,9.72-5.45.9.11,1.81.22,2.54.91,2.23,2.12,4.32,1.78,6.73,0,3.56-2.61,7.37-4.88,11.08-7.3.65-1.44.13-2.96.32-4.43.14-1.06.23-2.16,1.22-2.86,1.63-2.38,4.01-3.39,6.78-3.66.55.04,1.25.15,2.04.43,1.1.39,1.91.94,2.43,1.36.6.7,1.21,1.41,1.81,2.11.13.33.26.65.39.98.52,1.28.66,2.56.69,3.35.12,3.48-2.11,5.67-2.11,5.67-2.68,2.63-6.52,1.9-7.1,1.79-1.25-.24-2.22-.72-2.85-1.09-.88-.86-1.77-.99-2.7-.07-4.6,2.49-9.1,5.12-13.23,8.36.48,1.3.58,2.4.59,3.12,0,.39,0,1.03-.17,1.85-.24,1.09-.69,1.91-1.02,2.42-.49,1.13-.22,2.1.62,2.94,2.91,3.36,6.5,5.98,9.81,8.9.31.1.68.17,1.08.18,1.89.04,3.21-1.38,3.54-1.74.98-.51,2.31-1.08,3.95-1.44,2.56-.56,4.73-.36,6.11-.12,1.06.19,2.43.53,3.92,1.2,1.79.8,3.13,1.77,4.04,2.55,1.23,1.24,2.15,2.38,2.8,3.26,1.42,1.92,1.89,3.05,2.04,3.43.3.77.45,1.37.53,1.7.71,2.79.55,5.31.22,7.16-.39,1.33-.77,2.67-1.16,4Z"/><path class="cls-15" d="M507.27,367.58c2.57-5.37,8.17-8.53,14.11-7.8,1.88.23,3.12-.02,3.71-2.04.39-1.35,1.01-2.67,1.72-3.89,1.79-3.08,2.9-5.79.13-9.25-1.93-2.41-.12-7.03,2.56-8.82,3.45-2.3,6.92-2.22,9.61.73,1.51,1.65,2.96,1.85,4.85,1.34,3.32-.9,6.61-1.92,9.98-2.6,1.58-.32,1.55-1.38,1.82-2.38.95-3.49,4.03-6.03,7.39-6.04,3.67,0,6.62,2.46,7.51,6.3.76,3.26-.92,6.55-4.22,8.24-3.24,1.66-6.01,1.26-8.77-1.69-1.18-1.26-2.23-1.49-3.74-1.1-3.63.95-7.25,1.91-10.92,2.69-1.21.26-1.25.91-1.47,1.86-1,4.22-3.29,6.18-7.61,6.45-1.31.08-2.04.55-2.54,1.72-1.15,2.7-2.25,5.42-3.59,8.02-.87,1.68-.51,2.65.87,3.86,4.39,3.85,5.76,9.9,3.65,15.14-2.1,5.2-7.41,8.6-13.22,8.34-5.32-.24-8.98-3.19-11.79-7.45-.47-1.27-.72-2.62-1.2-3.89,0-1.48,0-2.97,0-4.45.33-1.12.65-2.24,1.18-3.29Z"/><path class="cls-12" d="M607.54,406.39c-2.33.9-4.38.73-5.16.65-4.47-.49-7.74-2.93-9.47-7.13-1.76-4.29-.78-8.2,2.18-11.62,2.61-3.02,6.07-4.59,9.97-3.79,2.28.47,4.18,1.39,5.71,2.71.71.62,3.61,3.16,4.08,7.27.04.35.09.93.05,1.64-.21,3.97-2.89,8.55-7.35,10.26Z"/><path class="cls-13" d="M589.91,258.89c5.47-.11,9.78,3.85,9.99,9.19.2,4.97-4.29,9.59-9.35,9.62-5.27.03-9.28-4.03-9.55-9.4-.26-5.05,4.11-9.91,8.91-9.41Z"/><path class="cls-14" d="M515.18,395.83c4.36,1.07,7.12,4.51,6.67,8.33-.47,3.97-4.14,7.33-8.01,7.33-3.88,0-7.59-3.37-8.21-7.45-.49-3.23,2.35-6.81,6.52-8.21,1.01.27,2.03.28,3.04,0Z"/><path class="cls-23" d="M520.47,327.93c-4.26-.05-7.76-3.53-7.77-7.73-.01-4.18,3.8-8.03,7.94-8.04,4.19,0,7.94,3.82,7.88,8.05-.06,4.43-3.55,7.78-8.06,7.73Z"/><path class="cls-19" d="M574.5,227.72c.5.17,1.33.52,2.14,1.21,2.35,2.02,2.43,5.2,2.46,6.2.02.73-.03,1.86-.42,3.2-.61,1.37-1.41,2.18-2.04,2.67-3.91,3.02-10.88.88-12.78-2.42-.59-1.02-.78-2.18-.78-2.18-.28-1.72.22-3.13.5-3.78.23-.65.64-1.56,1.4-2.45,1.43-1.69,3.2-2.3,3.98-2.51,1.85-.58,3.7-.47,5.54.06Z"/><path class="cls-17" d="M507.17,283.85c.2-.31,2.31-3.33,6.09-3.63,1.32-.1,2.65.29,4.24,1.14,3.08,1.64,4.73,5.38,3.75,8.47-1.11,3.5-4.2,6.16-7.9,5.98-3.89-.18-7.14-3.35-7.43-7.37-.02-.85.05-2.74,1.25-4.6Z"/><path class="cls-16" d="M543.15,435.52c-4.15-.05-7.58-3.61-7.57-7.87,0-3.87,3.7-7.48,7.67-7.49,4.1-.01,7.86,3.9,7.75,8.07-.1,3.95-3.75,7.33-7.85,7.28Z"/><path class="cls-22" d="M562.02,359.2c-.02,4.09-3.69,7.8-7.69,7.77-4.09-.02-7.75-3.76-7.69-7.84.06-4.03,3.83-7.69,7.88-7.65,3.81.04,7.53,3.86,7.5,7.72Z"/><path class="cls-18" d="M548.78,245.9c3.72-2.07,7.92-1.04,9.62,2.36,1.75,3.5.16,6.89-4.12,8.79-.47.13-1.11.25-1.88.23-.35,0-1.19-.06-2.17-.45-.39-.15-.7-.32-.93-.46-.56-.41-1.73-1.4-2.34-3.09-1.08-3.01.53-5.67.76-6.03.35-.45.71-.91,1.06-1.36Z"/><path class="cls-25" d="M509.15,341.58c.03-2.42,1.71-3.99,4.19-3.91,2.27.07,3.98,1.84,3.82,4.1-.17,2.33-1.43,3.69-3.86,3.75-2.62.06-4.19-1.44-4.16-3.94Z"/><path class="cls-21" d="M600.76,368.14c-.19,1.93-1.69,3.18-3.9,3.42-2.06.22-4.02-1.94-4.02-4.09,0-2.14,1.99-4.13,4.06-4.06,2.17.07,3.95,2.02,3.86,4.73Z"/><path class="cls-24" d="M572.74,252.09c2.39-.05,4.11,1.56,4.13,3.88.02,2.18-1.88,4.2-4.07,4.06-2.29-.15-3.77-1.36-3.88-3.83-.11-2.44,1.39-4.06,3.81-4.1Z"/><path class="cls-37" d="M540.46,284.99c.03,2.38-1.62,4.01-4.03,3.97-2.45-.04-3.7-1.46-3.97-3.74-.23-1.98,1.87-4.2,3.89-4.31,2.05-.11,4.09,1.91,4.11,4.08Z"/><path class="cls-20" d="M577.5,360.36c-2.19.01-4.35-1.96-4.09-4.03.28-2.2,1.54-3.77,3.94-3.96,2.04-.16,4.26,1.95,4.3,3.94.04,2.08-1.96,4.03-4.15,4.05Z"/><path class="cls-27" d="M584.21,423.16c-2.04,0-4.17-2.05-4.17-4.01,0-2.05,2.1-4.08,4.23-3.93,2.34.17,3.73,1.46,3.84,3.87.1,2.32-1.61,4.07-3.9,4.07Z"/><path class="cls-11" d="M535.97,409.8c0,2-2.13,4.14-4.11,4.12-2.21-.02-3.91-1.85-3.85-4.18.06-2.45,1.41-3.69,3.8-3.79,2.27-.1,4.16,1.69,4.16,3.86Z"/><path class="cls-28" d="M583.37,400.62c-.08,2.04-2.04,3.94-4.04,3.68-2.16-.28-3.41-1.74-3.61-3.85-.18-1.87,2-3.88,3.89-3.84,1.93.04,3.83,2.07,3.75,4.01Z"/><path class="cls-26" d="M517.99,433.05c-2.33-.23-3.63-1.56-3.96-3.66-.29-1.84,1.95-3.95,3.85-3.91,2.23.06,3.92,1.75,3.79,3.9-.14,2.32-1.64,3.33-3.68,3.67Z"/><path class="cls-10" d="M581.5,336.3c1.48.03,2.79,1.24,3.04,3.43.2,1.82-1.97,4.12-3.77,4.01-2.17-.14-3.58-1.41-3.84-3.59-.24-2.03,1.59-3.77,4.57-3.84Z"/><path class="cls-4" d="M513.31,243.66c.93,2.03.36,3.84-1.23,5.15-1.41,1.16-2.83.64-4.4-.33-.63-.39-1.12-.81-1.35-1.45-.67-1.8,1.14-4.99,3.65-5.12,1.85-.1,3.16,1.53,3.33,1.75Z"/><path class="cls-6" d="M544.5,329.25c-1.66-.08-3.18-1.16-3.22-3.42-.05-2.33,1.48-3.72,3.7-4.05,1.82-.27,3.86,1.95,3.84,3.9-.01,1.91-1.67,3.49-4.32,3.57Z"/><path class="cls-7" d="M530.84,296.28c1.55.08,2.88,1.63,2.92,3.81.04,2.16-1.54,3.45-3.74,3.51-2.27.06-3.6-1.26-3.84-3.45-.22-2.03,1.67-3.86,4.65-3.87Z"/><path class="cls-5" d="M582.66,287.67c-.04,2.33-1.38,3.47-3.57,3.6-2.05.12-3.86-1.79-3.69-3.86.18-2.18,1.39-3.53,3.64-3.63,2.15-.1,3.65,1.59,3.62,3.89Z"/><path class="cls-3" d="M541.86,389.79c-.32,2.87-1.74,3.97-3.91,3.95-1.96-.01-3.88-2.25-3.53-4.1.43-2.26,1.87-3.45,4.28-3.24,2.46.22,2.95,1.96,3.16,3.39Z"/><path class="cls-8" d="M552.5,376.31c2.43-1.46,4.15-.21,5.18,1.78,1,1.94.66,3.95-1.48,5.2-2.4,1.4-4.16.57-5.49-1.65,1.2-.95,1.05-3.78,3.87-2.75-1.06-.63-2.08-1.23-2.08-2.58Z"/><path class="cls-9" d="M552.5,376.31c.91.3.75,1.9,2.15,1.7.66-.1,1.62-.08,1.57.88-.02.46-.68,1.03-1.18,1.3-.92.49-1.19-.31-1.51-.95-.05-.09-.33-.08-.56-.12-.79.78-.16,2.91-2.26,2.53-1.36-2.44-.48-4.12,1.79-5.33Z"/><path class="cls-39" d="M515.18,395.83c-1.01.7-2.02.7-3.04,0,1.01,0,2.03,0,3.04,0Z"/></svg>